<?xml version="1.0" encoding="UTF-8" standalone="no"?><!DOCTYPE svg PUBLIC "-//W3C//DTD SVG 1.1//EN" "http://www.w3.org/Graphics/SVG/1.1/DTD/svg11.dtd"><!-- Generated by graphviz version 2.40.1 (20161225.0304)
 --><!-- Title: test Pages: 1 --><svg xmlns="http://www.w3.org/2000/svg" xmlns:xlink="http://www.w3.org/1999/xlink" width="564pt" height="292pt" viewBox="0.00 0.00 564.38 292.26">
<g id="graph0" class="graph" transform="scale(1 1) rotate(0) translate(4 288.2627)">
<title>test</title>
<polygon fill="#ffffff" stroke="transparent" points="-4,4 -4,-288.2627 560.385,-288.2627 560.385,4 -4,4"/>
<!-- A -->
<g id="node1" class="node">
<title>A</title>
<ellipse fill="#000000" stroke="#000000" cx="214.0079" cy="-260.8856" rx="18.0157" ry="18.0157"/>
<text text-anchor="middle" x="214.0079" y="-256.6856" font-family="Times,serif" font-size="14.00" fill="#ffffff">A</text>
</g>
<!-- B -->
<g id="node2" class="node">
<title>B</title>
<ellipse fill="#000000" stroke="#000000" cx="128.0079" cy="-183.5085" rx="18" ry="18"/>
<text text-anchor="middle" x="128.0079" y="-179.3085" font-family="Times,serif" font-size="14.00" fill="#ffffff">B</text>
</g>
<!-- A&#45;&#45;B -->
<g id="edge1" class="edge">
<title>A--B</title>
<path fill="none" stroke="#000000" d="M200.5704,-248.7954C184.5083,-234.3439 157.7802,-210.2956 141.6348,-195.7691"/>
</g>
<!-- C -->
<g id="node3" class="node">
<title>C</title>
<ellipse fill="#000000" stroke="#000000" cx="300.0079" cy="-183.5085" rx="18" ry="18"/>
<text text-anchor="middle" x="300.0079" y="-179.3085" font-family="Times,serif" font-size="14.00" fill="#ffffff">C</text>
</g>
<!-- A&#45;&#45;C -->
<g id="edge2" class="edge">
<title>A--C</title>
<path fill="none" stroke="#000000" d="M227.4454,-248.7954C243.5074,-234.3439 270.2356,-210.2956 286.3809,-195.7691"/>
</g>
<!-- D -->
<g id="node4" class="node">
<title>D</title>
<ellipse fill="#000000" stroke="#000000" cx="69.0079" cy="-106.1314" rx="18.0157" ry="18.0157"/>
<text text-anchor="middle" x="69.0079" y="-101.9314" font-family="Times,serif" font-size="14.00" fill="#ffffff">D</text>
</g>
<!-- B&#45;&#45;D -->
<g id="edge3" class="edge">
<title>B--D</title>
<path fill="none" stroke="#000000" d="M116.9104,-168.9544C106.3621,-155.1206 90.5873,-134.4323 80.0555,-120.6201"/>
</g>
<!-- m1 -->
<!-- B&#45;&#45;m1 -->
<!-- E -->
<g id="node6" class="node">
<title>E</title>
<ellipse fill="#000000" stroke="#000000" cx="187.0079" cy="-106.1314" rx="18" ry="18"/>
<text text-anchor="middle" x="187.0079" y="-101.9314" font-family="Times,serif" font-size="14.00" fill="#ffffff">E</text>
</g>
<!-- B&#45;&#45;E -->
<g id="edge5" class="edge">
<title>B--E</title>
<path fill="none" stroke="#000000" d="M139.1053,-168.9544C149.6536,-155.1206 165.4284,-134.4323 175.9602,-120.6201"/>
</g>
<!-- F -->
<g id="node7" class="node">
<title>F</title>
<ellipse fill="#000000" stroke="#000000" cx="241.0079" cy="-106.1314" rx="18" ry="18"/>
<text text-anchor="middle" x="241.0079" y="-101.9314" font-family="Times,serif" font-size="14.00" fill="#ffffff">F</text>
</g>
<!-- C&#45;&#45;F -->
<g id="edge6" class="edge">
<title>C--F</title>
<path fill="none" stroke="#000000" d="M288.9104,-168.9544C278.3621,-155.1206 262.5873,-134.4323 252.0555,-120.6201"/>
</g>
<!-- m2 -->
<!-- C&#45;&#45;m2 -->
<!-- G -->
<g id="node9" class="node">
<title>G</title>
<ellipse fill="#000000" stroke="#000000" cx="359.0079" cy="-106.1314" rx="18.0157" ry="18.0157"/>
<text text-anchor="middle" x="359.0079" y="-101.9314" font-family="Times,serif" font-size="14.00" fill="#ffffff">G</text>
</g>
<!-- C&#45;&#45;G -->
<g id="edge8" class="edge">
<title>C--G</title>
<path fill="none" stroke="#000000" d="M311.1053,-168.9544C321.6536,-155.1206 337.4284,-134.4323 347.9602,-120.6201"/>
</g>
<!-- H -->
<g id="node10" class="node">
<title>H</title>
<ellipse fill="#000000" stroke="#000000" cx="18.0079" cy="-23.3771" rx="18.0157" ry="18.0157"/>
<text text-anchor="middle" x="18.0079" y="-19.1771" font-family="Times,serif" font-size="14.00" fill="#ffffff">H</text>
</g>
<!-- D&#45;&#45;H -->
<g id="edge9" class="edge">
<title>D--H</title>
<path fill="none" stroke="#000000" d="M59.4151,-90.5659C50.2972,-75.7708 36.6613,-53.6448 27.5576,-38.8728"/>
</g>
<!-- I -->
<g id="node11" class="node">
<title>I</title>
<ellipse fill="#000000" stroke="#000000" cx="72.0079" cy="-23.3771" rx="18" ry="18"/>
<text text-anchor="middle" x="72.0079" y="-19.1771" font-family="Times,serif" font-size="14.00" fill="#ffffff">I</text>
</g>
<!-- D&#45;&#45;I -->
<g id="edge10" class="edge">
<title>D--I</title>
<path fill="none" stroke="#000000" d="M69.6737,-87.7655C70.1743,-73.9565 70.8566,-55.1337 71.3542,-41.4069"/>
</g>
<!-- J -->
<g id="node12" class="node">
<title>J</title>
<ellipse fill="#000000" stroke="#000000" cx="128.0079" cy="-23.3771" rx="18" ry="18"/>
<text text-anchor="middle" x="128.0079" y="-19.1771" font-family="Times,serif" font-size="14.00" fill="#ffffff">J</text>
</g>
<!-- E&#45;&#45;J -->
<g id="edge11" class="edge">
<title>E--J</title>
<path fill="none" stroke="#000000" d="M176.4598,-91.3366C165.7207,-76.2737 149.1706,-53.0603 138.4646,-38.0438"/>
</g>
<!-- m4 -->
<!-- E&#45;&#45;m4 -->
<!-- m3 -->
<!-- m5 -->
<!-- m6 -->
<!-- m7 -->
<!-- m8 -->
</g>
</svg>