<?xml version="1.0" encoding="UTF-8" standalone="no"?><!DOCTYPE svg PUBLIC "-//W3C//DTD SVG 1.1//EN" "http://www.w3.org/Graphics/SVG/1.1/DTD/svg11.dtd"><!-- Generated by graphviz version 2.40.1 (20161225.0304)
 --><!-- Title: test Pages: 1 --><svg xmlns="http://www.w3.org/2000/svg" xmlns:xlink="http://www.w3.org/1999/xlink" width="682pt" height="292pt" viewBox="0.00 0.00 682.02 292.28">
<g id="graph0" class="graph" transform="scale(1 1) rotate(0) translate(4 288.2784)">
<title>test</title>
<polygon fill="#ffffff" stroke="transparent" points="-4,4 -4,-288.2784 678.0157,-288.2784 678.0157,4 -4,4"/>
<!-- A -->
<g id="node1" class="node">
<title>A</title>
<ellipse fill="#000000" stroke="#000000" cx="335.0079" cy="-266.2706" rx="18.0157" ry="18.0157"/>
<text text-anchor="middle" x="335.0079" y="-262.0706" font-family="Times,serif" font-size="14.00" fill="#ffffff">A</text>
</g>
<!-- B -->
<g id="node2" class="node">
<title>B</title>
<ellipse fill="#000000" stroke="#000000" cx="190.0079" cy="-188.8856" rx="18" ry="18"/>
<text text-anchor="middle" x="190.0079" y="-184.6856" font-family="Times,serif" font-size="14.00" fill="#ffffff">B</text>
</g>
<!-- A&#45;&#45;B -->
<g id="edge1" class="edge">
<title>A--B</title>
<path fill="none" stroke="#000000" d="M318.9363,-257.6933C291.0643,-242.8184 234.0734,-212.4029 206.1514,-197.5012"/>
</g>
<!-- m7 -->
<!-- A&#45;&#45;m7 -->
<!-- C -->
<g id="node4" class="node">
<title>C</title>
<ellipse fill="#000000" stroke="#000000" cx="480.0079" cy="-188.8856" rx="18" ry="18"/>
<text text-anchor="middle" x="480.0079" y="-184.6856" font-family="Times,serif" font-size="14.00" fill="#ffffff">C</text>
</g>
<!-- A&#45;&#45;C -->
<g id="edge3" class="edge">
<title>A--C</title>
<path fill="none" stroke="#000000" d="M351.0794,-257.6933C378.9514,-242.8184 435.9423,-212.4029 463.8643,-197.5012"/>
</g>
<!-- D -->
<g id="node5" class="node">
<title>D</title>
<ellipse fill="#000000" stroke="#000000" cx="77.0079" cy="-106.1314" rx="18.0157" ry="18.0157"/>
<text text-anchor="middle" x="77.0079" y="-101.9314" font-family="Times,serif" font-size="14.00" fill="#ffffff">D</text>
</g>
<!-- B&#45;&#45;D -->
<g id="edge4" class="edge">
<title>B--D</title>
<path fill="none" stroke="#000000" d="M175.2351,-178.0669C153.5787,-162.2071 113.4427,-132.814 91.7843,-116.9527"/>
</g>
<!-- m1 -->
<!-- B&#45;&#45;m1 -->
<!-- E -->
<g id="node7" class="node">
<title>E</title>
<ellipse fill="#ffd700" stroke="#ffd700" cx="249.0079" cy="-106.1314" rx="18" ry="18"/>
<text text-anchor="middle" x="249.0079" y="-101.9314" font-family="Times,serif" font-size="14.00" fill="#ffffff">E</text>
</g>
<!-- B&#45;&#45;E -->
<g id="edge6" class="edge">
<title>B--E</title>
<path fill="none" stroke="#000000" d="M200.5559,-174.0908C211.295,-159.0279 227.8451,-135.8145 238.5512,-120.7981"/>
</g>
<!-- F -->
<g id="node8" class="node">
<title>F</title>
<ellipse fill="#ff0000" stroke="#ff0000" cx="421.0079" cy="-106.1314" rx="18" ry="18"/>
<text text-anchor="middle" x="421.0079" y="-101.9314" font-family="Times,serif" font-size="14.00" fill="#ffffff">F</text>
</g>
<!-- C&#45;&#45;F -->
<g id="edge7" class="edge">
<title>C--F</title>
<path fill="none" stroke="#000000" d="M469.4598,-174.0908C458.7207,-159.0279 442.1706,-135.8145 431.4646,-120.7981"/>
</g>
<!-- m2 -->
<!-- C&#45;&#45;m2 -->
<!-- G -->
<g id="node10" class="node">
<title>G</title>
<ellipse fill="#ff0000" stroke="#ff0000" cx="597.0079" cy="-106.1314" rx="18.0157" ry="18.0157"/>
<text text-anchor="middle" x="597.0079" y="-101.9314" font-family="Times,serif" font-size="14.00" fill="#ffffff">G</text>
</g>
<!-- C&#45;&#45;G -->
<g id="edge9" class="edge">
<title>C--G</title>
<path fill="none" stroke="#000000" d="M494.826,-178.4047C517.2085,-162.5735 559.4119,-132.723 581.9405,-116.7885"/>
</g>
<!-- H -->
<g id="node11" class="node">
<title>H</title>
<ellipse fill="#000000" stroke="#000000" cx="18.0079" cy="-23.3771" rx="18.0157" ry="18.0157"/>
<text text-anchor="middle" x="18.0079" y="-19.1771" font-family="Times,serif" font-size="14.00" fill="#ffffff">H</text>
</g>
<!-- D&#45;&#45;H -->
<g id="edge10" class="edge">
<title>D--H</title>
<path fill="none" stroke="#000000" d="M66.4598,-91.3366C55.7207,-76.2737 39.1706,-53.0603 28.4646,-38.0438"/>
</g>
<!-- m3 -->
<!-- D&#45;&#45;m3 -->
<!-- I -->
<g id="node13" class="node">
<title>I</title>
<ellipse fill="#000000" stroke="#000000" cx="136.0079" cy="-23.3771" rx="18" ry="18"/>
<text text-anchor="middle" x="136.0079" y="-19.1771" font-family="Times,serif" font-size="14.00" fill="#ffffff">I</text>
</g>
<!-- D&#45;&#45;I -->
<g id="edge12" class="edge">
<title>D--I</title>
<path fill="none" stroke="#000000" d="M87.5559,-91.3366C98.295,-76.2737 114.8451,-53.0603 125.5512,-38.0438"/>
</g>
<!-- J -->
<g id="node14" class="node">
<title>J</title>
<ellipse fill="#000000" stroke="#000000" cx="190.0079" cy="-23.3771" rx="18" ry="18"/>
<text text-anchor="middle" x="190.0079" y="-19.1771" font-family="Times,serif" font-size="14.00" fill="#ffffff">J</text>
</g>
<!-- E&#45;&#45;J -->
<g id="edge13" class="edge">
<title>E--J</title>
<path fill="none" stroke="#000000" d="M238.4598,-91.3366C227.7207,-76.2737 211.1706,-53.0603 200.4646,-38.0438"/>
</g>
<!-- m4 -->
<!-- E&#45;&#45;m4 -->
<!-- K -->
<g id="node16" class="node">
<title>K</title>
<ellipse fill="#000000" stroke="#000000" cx="308.0079" cy="-23.3771" rx="18.0157" ry="18.0157"/>
<text text-anchor="middle" x="308.0079" y="-19.1771" font-family="Times,serif" font-size="14.00" fill="#ffffff">K</text>
</g>
<!-- E&#45;&#45;K -->
<g id="edge15" class="edge">
<title>E--K</title>
<path fill="none" stroke="#000000" d="M259.5559,-91.3366C270.295,-76.2737 286.8451,-53.0603 297.5512,-38.0438"/>
</g>
<!-- L -->
<g id="node17" class="node">
<title>L</title>
<ellipse fill="#c0c0c0" stroke="#c0c0c0" cx="362.0079" cy="-23.3771" rx="18" ry="18"/>
<text text-anchor="middle" x="362.0079" y="-19.1771" font-family="Times,serif" font-size="14.00" fill="#ffffff">L</text>
</g>
<!-- F&#45;&#45;L -->
<g id="edge16" class="edge">
<title>F--L</title>
<path fill="none" stroke="#000000" d="M410.4598,-91.3366C399.7207,-76.2737 383.1706,-53.0603 372.4646,-38.0438"/>
</g>
<!-- m5 -->
<!-- F&#45;&#45;m5 -->
<!-- M -->
<g id="node19" class="node">
<title>M</title>
<ellipse fill="#c0c0c0" stroke="#c0c0c0" cx="482.0079" cy="-23.3771" rx="19.7419" ry="19.7419"/>
<text text-anchor="middle" x="482.0079" y="-19.1771" font-family="Times,serif" font-size="14.00" fill="#ffffff">M</text>
</g>
<!-- F&#45;&#45;M -->
<g id="edge18" class="edge">
<title>F--M</title>
<path fill="none" stroke="#000000" d="M431.9134,-91.3366C442.7425,-76.6456 459.2864,-54.2017 470.3659,-39.1709"/>
</g>
<!-- N -->
<g id="node20" class="node">
<title>N</title>
<ellipse fill="#c0c0c0" stroke="#c0c0c0" cx="538.0079" cy="-23.3771" rx="18.0157" ry="18.0157"/>
<text text-anchor="middle" x="538.0079" y="-19.1771" font-family="Times,serif" font-size="14.00" fill="#ffffff">N</text>
</g>
<!-- G&#45;&#45;N -->
<g id="edge19" class="edge">
<title>G--N</title>
<path fill="none" stroke="#000000" d="M586.4598,-91.3366C575.7207,-76.2737 559.1706,-53.0603 548.4646,-38.0438"/>
</g>
<!-- m6 -->
<!-- G&#45;&#45;m6 -->
<!-- O -->
<g id="node22" class="node">
<title>O</title>
<ellipse fill="#c0c0c0" stroke="#c0c0c0" cx="656.0079" cy="-23.3771" rx="18.0157" ry="18.0157"/>
<text text-anchor="middle" x="656.0079" y="-19.1771" font-family="Times,serif" font-size="14.00" fill="#ffffff">O</text>
</g>
<!-- G&#45;&#45;O -->
<g id="edge21" class="edge">
<title>G--O</title>
<path fill="none" stroke="#000000" d="M607.5559,-91.3366C618.295,-76.2737 634.8451,-53.0603 645.5512,-38.0438"/>
</g>
</g>
</svg>