<?xml version="1.0" standalone="no"?>
<!DOCTYPE svg PUBLIC "-//W3C//DTD SVG 20010904//EN"
 "http://www.w3.org/TR/2001/REC-SVG-20010904/DTD/svg10.dtd">
<svg version="1.0" xmlns="http://www.w3.org/2000/svg"
 width="900.000000pt" height="294.000000pt" viewBox="0 0 900.000000 294.000000"
 preserveAspectRatio="xMidYMid meet">
<metadata>
Created by potrace 1.10, written by Peter Selinger 2001-2011
</metadata>
<g transform="translate(0.000000,294.000000) scale(0.100000,-0.100000)"
fill="#000000" stroke="none">
<path d="M0 1470 l0 -1470 4500 0 4500 0 0 1470 0 1470 -4500 0 -4500 0 0
-1470z m6050 1341 c11 -21 15 -2666 4 -2695 -6 -15 -277 -16 -2973 -16 -2294
0 -2970 3 -2979 12 -16 16 -18 2669 -2 2699 11 19 55 19 2975 19 2920 0 2964
0 2975 -19z m2452 -203 c59 -18 140 -99 161 -162 35 -103 12 -203 -66 -278
-26 -27 -54 -48 -61 -48 -21 0 -108 -40 -142 -66 -17 -12 -46 -46 -64 -74 -30
-48 -33 -58 -33 -133 0 -107 12 -127 175 -293 70 -73 128 -138 128 -146 0 -22
-22 -48 -178 -205 -159 -160 -170 -179 -157 -251 7 -38 49 -92 72 -92 23 0 95
-43 129 -77 71 -70 95 -194 55 -282 -20 -46 -79 -121 -94 -121 -6 0 -18 -6
-26 -13 -9 -8 -41 -19 -70 -26 -103 -22 -218 23 -274 108 -15 23 -27 45 -27
51 0 25 -41 86 -68 103 -38 22 -95 22 -130 0 -15 -10 -87 -77 -160 -150 -144
-144 -162 -157 -195 -148 -12 4 -277 262 -589 573 -560 558 -568 567 -568 606
0 38 7 46 152 188 160 156 159 155 248 149 45 -3 70 -28 95 -92 11 -28 37 -71
58 -95 132 -150 386 -92 442 102 18 63 18 73 3 143 -11 45 -23 65 -68 112 -37
38 -69 60 -100 70 -32 10 -53 26 -77 57 -62 82 -44 118 154 315 133 131 153
147 183 147 30 0 50 -17 184 -149 83 -82 170 -158 193 -170 59 -29 176 -29
232 0 72 37 107 83 148 193 20 54 99 132 155 152 44 16 128 17 180 2z"/>
<path d="M307 2593 c-4 -3 -7 -423 -7 -932 0 -755 3 -940 15 -1001 36 -193
108 -272 289 -321 134 -35 382 -21 486 29 l35 17 3 169 c1 93 -1 173 -5 177
-5 4 -42 0 -84 -9 -71 -15 -79 -15 -123 2 -25 10 -52 27 -59 39 -9 17 -13 233
-17 927 l-5 905 -261 3 c-143 1 -263 -1 -267 -5z"/>
<path d="M5305 2394 c-11 -3 -44 -11 -72 -19 -51 -14 -101 -28 -223 -61 -30
-8 -80 -23 -110 -32 l-55 -17 -5 -160 -5 -160 -94 -3 c-52 -1 -101 -8 -108
-14 -18 -14 -19 -368 -1 -386 7 -7 45 -12 99 -12 57 0 90 -4 97 -12 6 -8 12
-159 14 -408 5 -370 6 -398 26 -450 69 -184 174 -278 364 -324 133 -32 394
-15 518 35 l45 18 3 167 c1 95 -2 172 -7 177 -6 6 -44 2 -101 -9 -89 -17 -95
-17 -167 1 -143 36 -153 70 -153 498 0 273 1 287 19 297 11 6 87 10 174 10
126 0 157 3 167 15 9 11 13 69 14 203 l1 187 -185 5 -185 5 -3 228 -2 227 -23
-1 c-12 -1 -31 -3 -42 -5z"/>
<path d="M1825 1954 c-49 -8 -110 -19 -135 -25 -25 -7 -63 -15 -85 -19 -39 -8
-95 -25 -125 -40 -12 -6 -15 -38 -18 -179 -3 -188 -6 -181 63 -157 161 56 477
82 640 52 153 -28 206 -90 196 -233 -1 -10 -62 -13 -268 -13 -327 0 -423 -13
-563 -78 -69 -32 -170 -120 -191 -167 -5 -11 -13 -27 -17 -35 -29 -51 -36 -73
-47 -154 -16 -116 -2 -235 39 -319 81 -168 277 -267 533 -267 112 0 307 30
327 50 6 6 17 10 26 10 21 0 82 32 125 64 48 37 61 34 69 -15 13 -84 -2 -80
254 -77 l227 3 0 575 c0 524 -2 578 -18 614 -9 21 -17 44 -17 52 0 19 -64 124
-97 159 -134 143 -365 216 -678 214 -82 -1 -190 -8 -240 -15z m533 -1043 c3
-131 0 -138 -94 -191 -81 -47 -168 -70 -266 -70 -180 0 -265 82 -243 235 9 57
59 110 118 125 23 6 47 13 52 15 6 2 105 3 220 2 l210 -2 3 -114z"/>
<path d="M3615 1951 c-129 -22 -179 -40 -291 -99 -32 -17 -91 -78 -121 -125
-94 -148 -81 -398 27 -520 51 -59 177 -135 300 -182 25 -9 60 -23 78 -31 18
-8 39 -14 47 -14 8 0 29 -6 47 -14 18 -7 58 -21 88 -31 140 -43 190 -77 190
-130 0 -18 -8 -39 -17 -48 -33 -28 -134 -40 -286 -33 -190 9 -289 23 -392 58
-44 15 -107 29 -111 25 -2 -2 -6 -330 -4 -384 0 -23 146 -61 351 -89 134 -19
446 -15 539 5 86 20 190 53 196 62 3 5 11 9 19 9 22 0 107 59 148 104 21 23
52 70 69 106 31 63 32 69 32 200 0 107 -3 142 -17 169 -9 19 -17 38 -17 44 0
13 -59 87 -99 122 -37 32 -52 42 -121 75 -25 12 -54 26 -65 32 -11 6 -33 15
-50 19 -16 4 -46 13 -65 20 -19 6 -51 17 -70 24 -19 7 -62 20 -95 30 -33 9
-78 23 -100 31 -23 8 -49 14 -59 14 -21 0 -86 64 -86 84 0 33 45 64 113 76
160 29 457 2 574 -52 40 -19 43 -6 43 187 0 196 -5 215 -51 215 -11 0 -45 6
-77 14 -189 48 -479 59 -667 27z"/>
</g>
</svg>
