<?xml version="1.0" standalone="no"?>
<!DOCTYPE svg PUBLIC "-//W3C//DTD SVG 20010904//EN"
 "http://www.w3.org/TR/2001/REC-SVG-20010904/DTD/svg10.dtd">
<svg version="1.0" xmlns="http://www.w3.org/2000/svg"
 width="900.000000pt" height="1305.000000pt" viewBox="0 0 900.000000 1305.000000"
 preserveAspectRatio="xMidYMid meet">
<metadata>
Created by potrace 1.10, written by Peter Selinger 2001-2011
</metadata>
<g transform="translate(0.000000,1305.000000) scale(0.100000,-0.100000)"
fill="#000000" stroke="none">
<path d="M0 6510 l0 -6510 4500 0 4500 0 0 6504 0 6503 -37 7 c-21 3 -2046 6
-4500 6 l-4463 0 0 -6510z m8811 6350 c19 -11 19 -70 19 -4305 l0 -4295 -22
-5 c-13 -3 -1967 -4 -4343 -3 l-4320 3 -3 4295 c-2 4029 -1 4296 15 4308 22
16 8623 18 8654 2z m-7682 -9024 c57 -29 106 -82 132 -143 18 -43 19 -92 19
-1503 0 -1310 -2 -1461 -16 -1496 -24 -58 -61 -100 -118 -136 -47 -29 -57 -32
-141 -32 -82 -1 -94 2 -134 28 -58 37 -87 70 -111 124 -20 44 -20 75 -20 1513
0 1377 1 1471 18 1506 64 139 240 205 371 139z m6408 -419 c54 -34 88 -80 113
-152 17 -48 20 -84 20 -212 l0 -153 159 0 c199 0 267 -17 332 -83 102 -106
103 -252 2 -353 -62 -62 -87 -68 -298 -74 l-190 -5 -3 -635 c-3 -700 -6 -671
59 -719 42 -31 129 -38 209 -16 100 27 124 29 161 10 80 -41 113 -101 112
-206 0 -63 -4 -82 -26 -116 -87 -138 -298 -204 -552 -174 -266 31 -404 132
-487 358 -21 57 -22 69 -25 773 -3 541 -7 716 -16 722 -7 4 -67 8 -135 8 -110
0 -128 2 -171 25 -64 32 -115 95 -136 168 -29 99 15 211 105 268 49 31 97 41
220 48 l125 6 5 185 5 185 34 52 c32 48 96 99 145 115 11 4 59 6 106 4 72 -2
91 -6 127 -29z m-4545 -443 c127 -16 162 -25 288 -77 84 -34 221 -115 262
-154 29 -28 48 -24 48 11 0 31 33 105 59 133 42 44 88 72 146 87 54 14 67 14
125 0 91 -21 155 -72 191 -153 18 -42 19 -76 19 -1073 l0 -1029 -24 -47 c-25
-48 -68 -94 -121 -127 -43 -28 -207 -28 -250 0 -74 46 -145 141 -145 193 0 34
-12 32 -64 -12 -63 -54 -168 -125 -221 -149 -22 -10 -53 -25 -68 -33 -16 -8
-33 -14 -39 -14 -5 0 -24 -6 -41 -14 -18 -8 -74 -22 -125 -31 -194 -37 -439 5
-640 108 -95 48 -163 99 -257 191 -268 264 -391 634 -356 1070 18 237 73 416
180 596 56 93 165 226 228 277 26 21 58 47 71 58 22 19 49 35 147 88 109 58
254 96 452 116 6 0 67 -6 135 -15z m2631 1 c192 -22 285 -49 446 -129 194 -95
311 -235 313 -375 1 -54 -3 -68 -28 -104 -60 -84 -153 -122 -249 -102 -67 14
-88 27 -167 102 -114 109 -264 163 -448 163 -231 -1 -356 -98 -337 -262 7 -60
31 -105 75 -145 63 -56 144 -89 412 -167 361 -104 500 -172 630 -305 118 -121
170 -257 170 -444 -1 -201 -77 -365 -233 -500 -215 -185 -548 -272 -851 -222
-377 63 -577 163 -752 374 -45 54 -54 72 -65 130 -9 54 -9 76 1 107 27 84 95
142 195 169 49 12 60 12 102 -2 65 -22 89 -38 167 -110 123 -113 255 -187 388
-218 59 -13 107 -16 205 -13 160 5 218 23 284 87 42 41 48 52 54 104 10 77 0
144 -27 182 -40 59 -176 129 -348 180 -127 37 -160 47 -265 81 -133 43 -228
79 -275 104 -19 10 -58 31 -87 46 -76 41 -170 133 -221 216 -56 90 -73 156
-79 293 -7 160 5 224 58 332 92 185 270 320 524 396 43 13 119 26 240 40 17 2
31 5 33 6 2 0 62 -6 135 -14z"/>
<path d="M7385 12510 c-113 -29 -191 -64 -291 -131 -119 -80 -250 -232 -303
-354 -13 -27 -29 -64 -37 -82 -8 -17 -14 -37 -14 -45 0 -44 -73 -213 -127
-295 -57 -86 -171 -194 -263 -249 -131 -78 -201 -103 -361 -130 -102 -17 -112
-17 -230 0 -187 26 -315 76 -447 173 -23 17 -257 244 -520 503 -336 333 -489
477 -519 491 -53 24 -126 24 -178 0 -56 -26 -1044 -1019 -1075 -1080 -77 -154
-79 -303 -4 -451 23 -45 119 -141 164 -164 19 -9 62 -26 95 -38 325 -108 550
-350 626 -671 33 -139 23 -372 -22 -482 -4 -11 -18 -45 -30 -75 -91 -225 -314
-427 -556 -504 -153 -49 -392 -54 -521 -10 -23 8 -47 14 -52 14 -10 0 -141 62
-175 83 -58 35 -139 104 -190 159 -81 90 -138 190 -181 318 -56 168 -115 246
-236 310 -61 32 -67 34 -173 34 -125 0 -198 -20 -288 -78 -67 -42 -966 -945
-984 -987 -17 -40 -17 -133 0 -182 11 -30 426 -450 1932 -1958 1155 -1156
1934 -1928 1957 -1940 47 -24 136 -25 186 -2 23 10 219 197 512 488 284 282
497 485 530 506 132 84 303 92 435 22 124 -67 186 -148 245 -323 31 -94 87
-209 115 -237 8 -8 15 -18 15 -22 0 -16 141 -146 206 -190 79 -54 169 -99 216
-108 18 -3 41 -10 51 -15 11 -5 65 -16 120 -24 271 -39 571 65 759 264 71 76
168 216 168 243 0 10 4 20 9 23 10 6 43 109 62 191 26 114 9 378 -30 453 -5 9
-23 50 -39 89 -17 40 -46 96 -66 125 -78 118 -227 246 -356 305 -90 42 -118
53 -135 53 -34 0 -137 64 -192 119 -37 38 -67 81 -90 131 -33 70 -35 82 -36
180 -1 134 21 200 96 290 17 19 251 259 520 532 274 278 497 512 505 530 19
43 18 134 -1 177 -8 20 -173 193 -399 420 -211 212 -404 413 -429 446 -58 77
-110 179 -144 280 -45 136 -46 379 -2 530 56 196 210 397 392 513 29 18 157
79 180 85 55 15 196 69 244 92 80 39 177 117 253 202 129 144 218 382 218 583
0 93 -34 264 -65 330 -7 14 -20 43 -31 65 -50 108 -168 250 -271 326 -88 66
-207 121 -323 150 -102 26 -325 25 -425 -1z"/>
<path d="M2804 2460 c-120 -30 -200 -75 -289 -165 -145 -144 -215 -330 -215
-566 1 -68 5 -143 10 -166 23 -99 28 -120 44 -158 72 -172 180 -294 322 -364
174 -85 398 -81 575 11 94 50 207 167 259 270 53 105 74 176 90 304 26 205
-27 430 -138 589 -118 168 -308 265 -517 264 -38 0 -102 -9 -141 -19z"/>
</g>
</svg>
