<?xml version="1.0" standalone="no"?>
<!DOCTYPE svg PUBLIC "-//W3C//DTD SVG 20010904//EN"
 "http://www.w3.org/TR/2001/REC-SVG-20010904/DTD/svg10.dtd">
<svg version="1.0" xmlns="http://www.w3.org/2000/svg"
 width="900.000000pt" height="903.000000pt" viewBox="0 0 900.000000 903.000000"
 preserveAspectRatio="xMidYMid meet">
<metadata>
Created by potrace 1.10, written by Peter Selinger 2001-2011
</metadata>
<g transform="translate(0.000000,903.000000) scale(0.100000,-0.100000)"
fill="#000000" stroke="none">
<path d="M507 9017 c-3 -8 -30 -19 -61 -25 -103 -21 -202 -75 -276 -152 -79
-81 -109 -128 -144 -231 l-26 -76 3 -4034 c2 -3194 5 -4043 15 -4077 46 -158
164 -294 319 -367 121 -58 -111 -55 4153 -55 4196 0 4037 -1 4150 48 59 25
183 119 216 163 41 55 91 151 104 197 6 25 17 42 25 42 13 0 15 31 15 203 l0
202 -43 20 c-56 26 -196 103 -210 116 -7 5 -50 37 -97 71 -101 73 -299 270
-355 354 -22 32 -56 82 -76 109 -105 146 -251 509 -277 693 -2 18 -8 35 -14
38 -5 3 -109 -69 -231 -160 -122 -91 -235 -175 -252 -186 -89 -62 -177 -124
-229 -162 -33 -24 -64 -45 -70 -48 -6 -3 -24 -14 -41 -24 -16 -11 -66 -43
-110 -71 -44 -29 -112 -73 -152 -98 -40 -26 -74 -47 -77 -47 -3 0 -40 -20 -82
-45 -41 -25 -78 -45 -80 -45 -2 0 -21 -11 -42 -23 -80 -51 -418 -225 -517
-267 -27 -12 -59 -25 -70 -30 -11 -5 -42 -18 -70 -30 -27 -12 -59 -25 -70 -30
-11 -4 -29 -11 -40 -15 -250 -90 -375 -133 -440 -150 -55 -14 -143 -39 -220
-61 -54 -16 -170 -41 -250 -54 -27 -4 -68 -12 -90 -18 -40 -11 -146 -26 -395
-58 -194 -26 -811 -26 -985 -1 -66 10 -154 22 -195 28 -41 5 -111 18 -155 28
-44 10 -116 27 -160 36 -44 10 -96 23 -115 30 -39 13 -64 22 -193 66 -48 16
-129 49 -180 73 -50 23 -110 51 -132 61 -62 28 -353 204 -389 234 -17 15 -67
55 -111 88 -88 67 -308 279 -370 358 -22 27 -56 67 -76 90 -115 127 -330 509
-364 645 -3 14 -10 34 -14 45 -27 67 -35 104 -83 350 -9 47 -13 145 -12 300 1
225 3 248 45 490 15 89 81 290 138 420 192 444 504 805 982 1140 126 88 404
237 594 320 22 9 60 26 84 37 55 26 183 72 431 153 187 62 250 82 350 110 133
38 158 46 195 56 22 6 56 14 75 19 47 10 235 58 285 72 55 15 158 37 228 48
32 6 67 14 77 20 10 5 28 10 40 10 12 0 54 7 94 15 206 45 287 61 389 75 38 5
72 12 76 14 8 6 166 34 261 47 36 5 85 13 110 18 25 6 97 18 160 26 63 9 140
21 170 26 67 13 235 36 348 49 46 6 88 12 92 15 9 6 176 28 335 45 50 5 97 12
105 16 17 6 222 32 355 44 50 4 117 12 150 18 33 6 132 18 220 27 88 9 201 20
250 26 50 5 135 14 190 19 55 6 110 12 123 15 l22 5 0 553 c0 792 -22 1034
-119 1332 -81 249 -180 417 -348 595 -35 36 -63 71 -63 78 0 9 -352 12 -1725
12 -1649 0 -1725 -1 -1725 -18 0 -10 -25 -42 -56 -72 -90 -90 -191 -246 -259
-405 -7 -16 -18 -41 -24 -55 -10 -23 -61 -191 -97 -320 -8 -30 -21 -77 -29
-105 -16 -56 -63 -241 -75 -295 -39 -180 -121 -390 -207 -533 -169 -279 -380
-409 -694 -424 -237 -12 -434 55 -607 205 -120 105 -223 285 -273 477 -20 80
-23 113 -22 286 0 146 4 215 17 270 9 41 24 108 33 149 8 41 22 92 29 113 13
34 21 57 56 147 33 86 161 325 231 431 42 63 77 123 77 132 0 16 -49 17 -724
17 -597 0 -725 -2 -729 -13z"/>
<path d="M7705 5579 c-33 -5 -100 -15 -150 -23 -49 -8 -144 -22 -210 -31 -66
-9 -153 -23 -193 -31 -40 -8 -89 -14 -110 -14 -20 -1 -64 -7 -97 -15 -33 -8
-81 -15 -106 -15 -25 0 -68 -7 -95 -15 -27 -8 -67 -15 -89 -15 -22 0 -67 -7
-100 -15 -33 -8 -77 -14 -99 -15 -21 0 -68 -7 -105 -15 -86 -18 -186 -35 -284
-46 -43 -5 -83 -11 -89 -15 -9 -6 -107 -23 -258 -44 -36 -5 -83 -14 -105 -20
-22 -5 -69 -15 -105 -20 -161 -26 -188 -31 -235 -41 -73 -16 -412 -97 -470
-113 -27 -7 -79 -21 -115 -30 -36 -10 -90 -25 -120 -33 -30 -9 -75 -22 -100
-28 -131 -37 -164 -47 -265 -81 -185 -62 -207 -70 -309 -113 -186 -80 -334
-158 -482 -256 -127 -84 -170 -120 -294 -244 -202 -203 -298 -348 -384 -578
-78 -209 -98 -489 -52 -713 27 -131 53 -212 98 -308 136 -290 351 -527 625
-691 56 -34 105 -61 108 -61 4 0 62 -25 160 -71 104 -48 376 -107 532 -115
136 -8 454 10 578 31 260 45 323 59 590 130 59 16 189 58 225 73 14 6 66 25
115 42 230 80 301 110 560 241 192 97 279 143 347 186 21 13 40 23 43 23 8 0
401 238 495 300 41 27 81 52 88 56 15 7 366 242 485 324 43 30 83 62 88 72 5
10 8 489 7 1185 l-3 1168 -30 2 c-16 0 -57 -3 -90 -8z"/>
</g>
</svg>
