<?xml version="1.0" standalone="no"?>
<!DOCTYPE svg PUBLIC "-//W3C//DTD SVG 20010904//EN"
 "http://www.w3.org/TR/2001/REC-SVG-20010904/DTD/svg10.dtd">
<svg version="1.0" xmlns="http://www.w3.org/2000/svg"
 width="900.000000pt" height="1407.000000pt" viewBox="0 0 900.000000 1407.000000"
 preserveAspectRatio="xMidYMid meet">
<metadata>
Created by potrace 1.10, written by Peter Selinger 2001-2011
</metadata>
<g transform="translate(0.000000,1407.000000) scale(0.100000,-0.100000)"
fill="#000000" stroke="none">
<path d="M25 14018 c-3 -7 -4 -3158 -3 -7001 l3 -6988 4465 0 4465 0 3 7001 2
7000 -4465 0 c-3563 0 -4467 -3 -4470 -12z m5507 -458 c253 -37 406 -109 520
-246 146 -177 158 -475 33 -841 -14 -39 -25 -77 -25 -83 0 -7 -6 -26 -14 -43
-38 -87 -102 -271 -122 -351 -40 -167 23 -310 166 -373 30 -13 64 -28 75 -33
84 -37 495 -72 674 -58 251 21 429 44 606 78 61 12 137 25 170 30 61 8 302 55
365 70 119 29 223 50 248 50 36 0 48 -13 55 -65 4 -22 13 -71 22 -110 8 -38
22 -101 29 -140 8 -38 22 -104 31 -145 20 -89 31 -150 90 -510 30 -180 60
-585 52 -696 -27 -366 -68 -518 -170 -615 -66 -63 -100 -74 -232 -74 -94 0
-131 4 -170 19 -27 11 -54 22 -60 26 -5 4 -41 17 -80 29 -38 13 -74 27 -79 32
-6 5 -16 9 -24 9 -8 0 -28 6 -45 14 -18 7 -66 23 -107 36 -41 12 -86 26 -100
30 -14 5 -74 19 -133 31 -136 27 -359 23 -442 -8 -191 -70 -309 -222 -367
-468 -43 -187 -43 -554 1 -745 23 -104 36 -139 74 -210 76 -142 160 -214 312
-267 71 -25 330 -25 435 0 149 35 438 129 555 181 65 28 93 36 172 45 139 17
216 -5 295 -84 100 -100 138 -240 165 -610 8 -109 -23 -527 -52 -695 -8 -47
-21 -125 -29 -175 -27 -164 -45 -259 -60 -330 -9 -38 -23 -104 -31 -145 -8
-41 -21 -104 -30 -140 -8 -36 -20 -89 -25 -119 -5 -30 -14 -59 -19 -64 -5 -5
-38 -16 -73 -24 -34 -8 -92 -21 -128 -30 -36 -8 -99 -21 -140 -28 -41 -7 -118
-22 -170 -34 -52 -11 -129 -25 -170 -30 -74 -10 -137 -21 -235 -41 -27 -5 -86
-14 -130 -20 -44 -5 -114 -14 -155 -20 -174 -24 -335 -30 -510 -20 -96 6 -197
15 -225 21 -118 22 -151 29 -170 38 -145 64 -201 109 -242 200 -23 49 -25 64
-21 145 5 95 20 155 68 271 7 17 21 57 32 90 11 33 26 74 33 90 7 17 23 64 35
105 12 41 25 86 30 100 35 100 45 171 45 340 0 145 -3 185 -19 235 -26 83 -73
152 -144 215 -159 140 -341 189 -697 189 -355 0 -543 -51 -713 -194 -82 -69
-147 -221 -158 -367 -7 -110 16 -313 46 -398 5 -14 23 -72 40 -130 18 -58 38
-118 46 -135 11 -25 50 -126 95 -245 5 -14 16 -65 24 -114 12 -79 12 -96 -2
-150 -24 -95 -89 -170 -188 -216 -83 -38 -88 -40 -140 -51 -107 -22 -156 -28
-327 -39 -178 -11 -350 -4 -518 21 -36 6 -101 14 -145 19 -44 6 -91 13 -105
16 -29 7 -156 29 -290 49 -52 8 -126 22 -165 30 -38 9 -104 23 -145 30 -205
40 -321 70 -331 86 -12 20 -11 32 17 154 14 61 31 142 39 180 7 39 21 102 30
140 9 39 20 97 25 130 5 33 19 114 30 180 86 479 106 766 75 1040 -28 243 -70
366 -148 437 -66 61 -115 78 -218 78 -79 0 -101 -4 -202 -41 -61 -23 -131 -50
-154 -60 -23 -11 -48 -19 -55 -19 -8 0 -18 -4 -24 -8 -9 -8 -96 -36 -209 -66
-33 -9 -73 -21 -90 -26 -73 -22 -252 -42 -329 -36 -86 7 -159 21 -191 36 -11
5 -42 18 -68 30 -91 40 -173 126 -232 244 -25 48 -45 96 -45 105 0 9 -4 21 -9
27 -5 5 -16 38 -26 74 -23 85 -33 512 -16 656 23 191 97 358 210 474 95 97
278 157 451 147 145 -8 311 -39 362 -67 10 -6 25 -10 33 -10 19 0 207 -63 273
-91 26 -12 94 -36 151 -55 140 -46 235 -48 314 -5 73 39 111 81 147 158 82
177 112 559 70 903 -24 190 -43 319 -65 440 -8 47 -22 126 -30 175 -13 85 -56
298 -75 375 -37 149 -52 234 -43 249 12 18 41 17 118 -3 51 -14 154 -36 260
-56 33 -7 89 -18 125 -26 36 -8 93 -18 127 -23 82 -12 239 -40 283 -51 57 -14
264 -39 424 -51 82 -6 159 -11 170 -12 12 -1 95 2 186 6 152 7 347 35 395 57
11 5 45 20 75 34 67 30 120 79 152 137 52 100 20 301 -83 511 -5 10 -9 23 -9
30 0 7 -6 25 -14 39 -7 14 -21 52 -31 85 -9 32 -27 93 -40 134 -13 41 -28 102
-34 135 -11 63 -27 249 -23 275 1 8 6 48 12 88 6 47 23 101 48 155 94 198 279
309 582 348 47 6 87 13 89 15 13 12 301 2 423 -16z m3276 -8396 l22 -15 0
-2483 c0 -1917 -3 -2485 -12 -2494 -9 -9 -982 -12 -4319 -12 -2369 0 -4314 3
-4323 6 -15 6 -16 235 -16 2494 0 2249 2 2490 16 2504 14 15 419 16 4312 16
3873 0 4300 -2 4320 -16z"/>
<path d="M1007 4743 c-4 -3 -7 -946 -7 -2094 l0 -2089 23 -5 c12 -3 162 -4
332 -3 l310 3 0 2095 0 2095 -326 3 c-179 1 -328 -1 -332 -5z"/>
<path d="M6817 4433 c-4 -3 -7 -203 -7 -444 0 -433 0 -438 -21 -449 -12 -7
-69 -10 -147 -9 l-127 2 -3 -221 -2 -221 147 -3 148 -3 6 -975 c4 -635 10
-998 17 -1042 21 -124 57 -225 113 -309 88 -132 210 -195 465 -239 83 -15 269
-9 454 14 69 9 126 16 128 16 1 0 1 115 0 257 l-3 256 -136 -2 c-81 -1 -155 2
-180 9 -58 16 -133 90 -148 146 -8 29 -10 309 -9 955 l3 914 223 3 222 2 -2
221 -3 221 -211 -1 c-169 -2 -213 1 -222 12 -8 10 -13 139 -14 453 l-3 439
-341 3 c-187 1 -343 -1 -347 -5z"/>
<path d="M2955 3561 c-55 -10 -107 -20 -115 -23 -8 -3 -37 -14 -65 -23 -229
-80 -380 -234 -465 -474 -26 -74 -41 -137 -60 -256 -11 -65 -12 -182 -2 -189
4 -2 144 -10 311 -16 218 -9 306 -9 314 -1 6 6 14 65 18 132 4 67 12 134 17
148 6 14 15 45 21 68 24 87 123 153 231 153 102 0 174 -47 208 -135 33 -86 57
-483 32 -530 -7 -14 -18 -25 -24 -25 -6 0 -22 -6 -36 -13 -14 -7 -50 -21 -80
-31 -30 -10 -68 -24 -85 -31 -16 -7 -75 -32 -130 -55 -121 -51 -294 -136 -316
-156 -8 -8 -21 -14 -27 -14 -6 0 -17 -6 -24 -13 -7 -7 -42 -33 -78 -57 -80
-54 -193 -166 -248 -248 -45 -66 -112 -204 -112 -231 0 -9 -4 -21 -8 -27 -10
-10 -28 -132 -38 -249 -10 -134 23 -291 89 -415 84 -157 185 -249 345 -311 70
-27 88 -30 198 -30 95 0 135 4 180 19 103 35 128 49 196 112 73 67 121 133
173 239 50 101 58 102 74 10 5 -30 19 -108 30 -174 11 -66 23 -130 26 -142 l5
-23 293 0 c160 0 298 4 305 8 10 7 10 20 2 58 -27 133 -33 328 -39 1269 -4
711 -9 985 -18 1000 -6 11 -14 43 -18 70 -7 49 -27 121 -45 160 -5 11 -16 38
-26 60 -27 61 -98 166 -141 206 -44 41 -137 109 -149 109 -5 0 -20 6 -34 13
-141 72 -446 98 -685 58z m453 -1925 l2 -410 -25 -37 c-37 -57 -99 -110 -168
-146 -51 -27 -73 -33 -125 -33 -118 0 -196 67 -236 202 -18 64 -23 292 -6 303
6 3 10 17 10 30 0 48 77 174 158 258 79 82 330 250 367 245 20 -3 20 -12 23
-412z"/>
<path d="M5160 3561 c-98 -20 -197 -58 -284 -110 -79 -46 -203 -170 -246 -246
-100 -173 -128 -406 -75 -612 35 -135 80 -221 185 -348 55 -68 223 -227 340
-325 69 -57 127 -106 130 -109 3 -3 58 -50 123 -105 151 -127 257 -242 299
-325 29 -59 32 -75 33 -151 0 -97 -14 -136 -67 -187 -49 -46 -99 -63 -187 -63
-75 0 -125 13 -197 52 -81 44 -178 202 -235 383 -7 22 -16 43 -19 48 -6 7 -47
-3 -105 -27 -16 -7 -86 -35 -155 -61 -69 -26 -138 -53 -155 -60 -16 -7 -40
-16 -52 -19 -29 -9 -36 -32 -19 -69 7 -18 21 -54 31 -82 27 -76 89 -200 131
-258 122 -171 308 -301 489 -343 39 -9 80 -20 93 -25 13 -5 99 -9 193 -9 155
0 178 2 282 29 165 44 279 105 379 205 77 76 91 97 169 257 4 9 11 38 14 65 4
27 12 57 17 66 5 10 9 71 9 136 2 193 -35 317 -139 477 -26 39 -51 76 -57 82
-48 58 -180 197 -220 232 -66 58 -222 199 -255 231 -15 14 -62 56 -106 94
-100 88 -283 271 -311 312 -89 128 -59 297 65 371 41 24 57 27 132 28 69 0 93
-4 127 -22 98 -53 183 -172 235 -333 33 -99 41 -109 76 -90 18 10 51 24 149
64 58 24 126 54 211 93 37 16 36 11 12 118 -6 28 -15 59 -19 70 -58 143 -114
238 -188 323 -55 62 -190 172 -212 172 -7 0 -25 7 -39 14 -130 71 -387 96
-582 57z"/>
</g>
</svg>
