<?xml version="1.0" standalone="no"?>
<!DOCTYPE svg PUBLIC "-//W3C//DTD SVG 20010904//EN"
 "http://www.w3.org/TR/2001/REC-SVG-20010904/DTD/svg10.dtd">
<svg version="1.0" xmlns="http://www.w3.org/2000/svg"
 width="5067.000000pt" height="1254.000000pt" viewBox="0 0 5067.000000 1254.000000"
 preserveAspectRatio="xMidYMid meet">
<metadata>
Created by potrace 1.10, written by Peter Selinger 2001-2011
</metadata>
<g transform="translate(0.000000,1254.000000) scale(0.100000,-0.100000)"
fill="#000000" stroke="none">
<path d="M2 10873 l3 -1668 1655 0 1655 0 3 1668 2 1667 -1660 0 -1660 0 2
-1667z m3192 1511 c9 -24 7 -3027 -2 -3042 -7 -10 -321 -12 -1538 -10 l-1529
3 -3 1520 c-1 836 0 1526 3 1533 3 9 319 12 1534 12 1385 0 1529 -1 1535 -16z"/>
<path d="M875 12218 c-3 -7 -4 -616 -3 -1353 l3 -1340 785 0 785 0 0 75 0 75
-591 3 c-480 2 -594 5 -603 16 -8 9 -12 366 -13 1272 l-3 1259 -178 3 c-136 2
-179 0 -182 -10z"/>
<path d="M3386 12509 c-3 -17 -6 -764 -6 -1659 0 -1358 2 -1629 14 -1639 10
-8 452 -10 1662 -9 l1649 3 3 1668 2 1667 -1659 0 -1658 0 -7 -31z m3199 -131
c3 -13 4 -702 3 -1533 l-3 -1510 -1535 0 -1535 0 -3 1520 c-1 836 0 1526 3
1533 3 9 320 12 1534 12 l1531 0 5 -22z"/>
<path d="M4824 12213 c-3 -10 -11 -34 -18 -53 -26 -70 -38 -106 -46 -135 -5
-16 -14 -46 -21 -65 -6 -19 -17 -51 -24 -70 -7 -19 -18 -51 -24 -70 -7 -19
-16 -48 -21 -65 -5 -16 -14 -46 -21 -65 -6 -19 -17 -51 -24 -70 -7 -19 -18
-51 -24 -70 -7 -19 -16 -48 -21 -65 -11 -39 -29 -91 -46 -133 -8 -18 -14 -39
-14 -47 0 -8 -6 -29 -14 -47 -8 -18 -48 -139 -90 -268 -42 -129 -81 -248 -87
-265 -5 -16 -19 -59 -30 -95 -12 -36 -27 -81 -34 -100 -27 -75 -37 -106 -45
-135 -5 -16 -14 -46 -21 -65 -6 -19 -17 -51 -24 -70 -7 -19 -18 -51 -24 -70
-7 -19 -16 -48 -21 -65 -5 -16 -14 -46 -21 -65 -6 -19 -17 -51 -24 -70 -7 -19
-18 -51 -24 -70 -7 -19 -16 -48 -21 -65 -5 -16 -14 -46 -21 -65 -6 -19 -17
-51 -24 -70 -7 -19 -18 -51 -24 -70 -21 -58 -32 -111 -26 -121 9 -14 162 -11
172 4 10 15 32 72 43 112 8 28 16 54 45 135 7 19 21 62 30 95 10 33 23 76 30
95 7 19 18 51 24 70 7 19 17 49 21 65 5 17 15 48 23 70 l15 40 598 0 598 0 12
-25 c13 -29 32 -81 44 -125 5 -16 14 -46 21 -65 6 -19 17 -51 24 -70 7 -19 27
-82 45 -140 17 -58 38 -120 46 -138 8 -18 14 -40 14 -50 0 -9 9 -32 20 -49
l20 -33 186 0 186 0 -5 23 c-17 68 -39 136 -63 195 -8 18 -14 39 -14 47 0 8
-6 29 -14 47 -8 18 -42 121 -76 228 -34 107 -68 211 -75 230 -27 75 -37 106
-45 135 -5 17 -14 46 -21 65 -6 19 -17 51 -24 70 -7 19 -18 51 -24 70 -7 19
-16 49 -21 65 -9 33 -27 85 -43 125 -5 14 -13 39 -17 55 -8 28 -16 54 -45 135
-7 19 -34 103 -60 185 -26 83 -53 166 -60 185 -27 75 -37 106 -45 135 -5 17
-14 46 -21 65 -6 19 -17 51 -24 70 -7 19 -18 51 -24 70 -7 19 -16 49 -21 65
-5 17 -14 46 -21 65 -6 19 -17 51 -24 70 -7 19 -18 51 -24 70 -7 19 -16 49
-21 65 -4 17 -19 62 -32 100 l-23 70 -223 3 c-205 2 -223 1 -228 -15z m149
-250 c2 -16 10 -44 17 -63 7 -19 18 -51 25 -70 7 -19 18 -51 24 -70 7 -19 16
-48 21 -65 8 -29 17 -56 45 -135 7 -19 61 -183 120 -365 59 -181 113 -346 119
-365 27 -73 38 -106 46 -135 5 -16 14 -46 21 -65 6 -19 17 -51 24 -70 7 -19
18 -51 25 -70 7 -19 13 -51 14 -70 l1 -35 -530 0 c-524 0 -530 0 -528 20 2 23
15 73 34 125 6 19 17 51 24 70 7 19 18 51 24 70 7 19 16 49 21 65 5 17 14 46
21 65 6 19 17 51 24 70 7 19 18 51 24 70 7 19 16 49 21 65 5 17 14 46 21 65 6
19 17 51 24 70 7 19 18 51 24 70 7 19 16 49 21 65 5 17 14 46 21 65 6 19 17
51 24 70 7 19 18 51 24 70 7 19 16 49 21 65 5 17 14 46 21 65 6 19 17 51 24
70 7 19 18 51 24 70 7 19 16 49 21 65 25 91 67 188 79 181 5 -3 11 -18 14 -33z"/>
<path d="M6776 12509 c-3 -17 -6 -764 -6 -1659 0 -1358 2 -1629 14 -1639 10
-8 452 -10 1662 -9 l1649 3 3 1668 2 1667 -1659 0 -1658 0 -7 -31z m3199
-1644 l0 -1530 -1535 0 -1535 0 -3 1520 c-1 836 0 1526 3 1533 3 10 316 12
1537 10 l1533 -3 0 -1530z"/>
<path d="M8270 12261 c-203 -23 -421 -131 -529 -260 -70 -84 -100 -143 -147
-281 -15 -44 -18 -86 -18 -215 0 -169 13 -234 64 -317 11 -18 24 -43 30 -56
14 -33 135 -151 205 -199 68 -48 434 -233 460 -233 7 0 124 -54 235 -108 293
-142 410 -284 409 -497 0 -162 -88 -297 -242 -373 -196 -97 -432 -104 -657
-20 -177 66 -321 237 -351 418 -16 99 -17 100 -47 100 -16 0 -37 -7 -48 -15
-10 -8 -27 -15 -37 -15 -11 0 -32 -8 -48 -17 -36 -21 -38 -57 -10 -153 79
-278 279 -456 601 -536 108 -27 403 -27 510 0 83 21 182 52 208 65 9 5 44 21
76 37 55 27 156 97 220 154 64 57 137 177 179 295 18 51 21 83 21 210 0 131
-2 158 -22 215 -60 168 -169 296 -337 396 -41 25 -183 93 -267 128 -18 8 -49
21 -68 29 -19 8 -55 23 -80 33 -25 9 -101 44 -170 77 -216 104 -311 190 -364
332 -27 70 -27 259 -1 330 50 134 149 223 304 275 60 20 195 40 270 40 110 0
267 -55 336 -118 77 -70 155 -204 155 -265 0 -47 18 -60 54 -42 16 8 34 15 41
15 45 0 38 91 -16 207 -23 50 -53 89 -113 149 -103 103 -192 148 -391 198 -69
18 -319 28 -415 17z"/>
<path d="M10166 12503 c-3 -21 -6 -768 -6 -1659 0 -1353 2 -1623 14 -1633 10
-8 452 -10 1662 -9 l1649 3 3 1668 2 1667 -1659 0 -1658 0 -7 -37z m3199
-1638 l0 -1530 -1529 -3 c-1217 -2 -1531 0 -1538 10 -4 7 -8 693 -8 1524 0
1163 3 1513 12 1522 9 9 359 11 1538 10 l1525 -3 0 -1530z"/>
<path d="M10882 12153 l3 -78 364 -3 c249 -1 369 -6 378 -13 11 -10 13 -230
13 -1263 0 -960 3 -1255 12 -1264 8 -8 64 -12 185 -12 95 0 174 1 175 3 2 1 5
574 8 1272 l5 1270 372 3 373 2 5 23 c4 13 5 48 3 78 l-3 54 -948 3 -948 2 3
-77z"/>
</g>
</svg>
