<?xml version="1.0" standalone="no"?>
<!DOCTYPE svg PUBLIC "-//W3C//DTD SVG 20010904//EN"
 "http://www.w3.org/TR/2001/REC-SVG-20010904/DTD/svg10.dtd">
<svg version="1.0" xmlns="http://www.w3.org/2000/svg"
 width="900.000000pt" height="294.000000pt" viewBox="0 0 900.000000 294.000000"
 preserveAspectRatio="xMidYMid meet">
<metadata>
Created by potrace 1.10, written by Peter Selinger 2001-2011
</metadata>
<g transform="translate(0.000000,294.000000) scale(0.100000,-0.100000)"
fill="#000000" stroke="none">
<path d="M0 1470 l0 -1470 4500 0 4500 0 0 1470 0 1470 -4500 0 -4500 0 0
-1470z m8880 1341 c16 -31 14 -2682 -2 -2704 -12 -16 -106 -17 -1418 -15
l-1405 3 -3 1355 c-1 745 0 1361 3 1368 3 9 295 12 1409 12 1379 0 1405 0
1416 -19z m-8049 -211 c19 -10 19 -31 19 -894 0 -486 3 -898 6 -916 11 -52 53
-72 144 -66 41 2 87 7 103 11 l27 7 0 -186 c0 -213 12 -187 -105 -221 -92 -27
-369 -26 -445 1 -125 45 -179 89 -226 184 -52 104 -53 120 -53 1137 -1 889 0
942 17 946 37 10 494 7 513 -3z m4536 -198 c9 -6 13 -68 15 -232 l3 -225 185
-5 185 -5 -4 -185 c-2 -102 -7 -195 -12 -207 -8 -22 -13 -23 -181 -25 l-173
-3 0 -330 c0 -181 3 -342 7 -356 22 -76 119 -117 249 -105 41 4 94 8 119 9
l45 2 3 -172 2 -172 -30 -16 c-76 -40 -180 -56 -355 -58 -183 -1 -221 6 -333
60 -47 23 -136 100 -167 144 -26 36 -63 129 -77 189 -6 25 -13 216 -17 425
l-6 380 -95 3 c-75 2 -98 6 -107 19 -9 12 -13 68 -13 193 0 125 4 181 13 193
9 13 32 17 107 19 l95 3 5 159 5 160 45 16 c44 17 77 26 190 54 30 8 82 22
115 31 33 9 80 20 104 26 24 5 47 11 49 14 7 7 15 6 29 -3z m-3032 -448 c182
-35 299 -90 395 -184 62 -61 82 -93 123 -195 31 -77 38 -235 35 -735 l-3 -485
-238 -3 -237 -2 -10 25 c-6 15 -10 39 -10 54 0 36 -9 44 -29 28 -58 -49 -138
-86 -261 -119 -109 -29 -379 -31 -465 -4 -155 49 -268 136 -322 247 -86 179
-59 417 64 568 35 42 159 131 183 131 7 0 26 6 43 14 74 32 155 41 452 46
l300 5 3 47 c5 79 -36 135 -128 173 -39 16 -74 18 -250 19 -202 0 -263 -7
-405 -46 -22 -5 -58 -11 -80 -12 l-40 -1 -3 151 c-1 83 1 161 6 173 12 33 135
69 352 105 122 20 423 20 525 0z m1808 0 c56 -8 125 -22 153 -30 28 -7 60 -14
72 -14 45 0 52 -31 52 -228 0 -205 -1 -207 -68 -179 -106 45 -330 72 -467 57
-49 -5 -100 -10 -112 -10 -13 0 -37 -13 -55 -29 -30 -26 -31 -30 -19 -58 17
-41 36 -50 236 -108 33 -10 71 -22 85 -28 14 -5 39 -13 55 -18 127 -34 276
-111 345 -178 70 -68 95 -123 110 -238 38 -298 -111 -482 -455 -559 -64 -14
-124 -17 -300 -17 -219 0 -351 14 -480 48 -27 7 -62 16 -77 19 -56 12 -58 21
-58 224 0 103 4 193 9 200 5 9 15 10 32 4 184 -71 510 -110 676 -81 64 11 103
40 103 76 0 29 -64 78 -125 97 -33 11 -74 25 -92 33 -17 7 -40 13 -50 13 -10
0 -23 4 -29 8 -5 5 -40 19 -79 31 -70 22 -89 30 -175 71 -117 56 -205 126
-241 192 -52 94 -67 280 -30 386 59 171 189 263 446 315 100 21 408 21 538 1z"/>
<path d="M8335 2601 c-66 -17 -133 -77 -166 -148 -10 -23 -19 -47 -19 -53 0
-16 -45 -82 -71 -106 -61 -53 -80 -59 -179 -59 -120 0 -127 4 -318 194 -124
123 -147 141 -175 141 -28 0 -51 -18 -184 -152 -83 -84 -156 -163 -162 -175
-15 -30 -14 -79 4 -113 15 -29 71 -70 96 -70 8 0 31 -14 53 -30 168 -127 148
-367 -39 -465 -30 -15 -57 -20 -119 -19 -71 0 -87 4 -125 28 -61 39 -93 76
-116 137 -35 90 -103 128 -177 100 -13 -5 -90 -74 -171 -154 -124 -122 -147
-149 -147 -174 0 -26 73 -103 565 -599 555 -558 567 -569 605 -569 33 0 46 7
83 45 24 25 93 93 155 153 l111 107 53 0 c59 -1 94 -22 120 -75 8 -16 25 -50
38 -75 82 -166 332 -174 437 -14 90 137 32 312 -127 387 -73 34 -86 46 -105
94 -16 39 -16 44 3 85 12 28 69 93 168 192 194 194 192 180 35 336 -128 128
-153 163 -171 239 -17 72 0 149 46 213 37 49 66 70 154 107 75 32 113 62 145
116 25 43 27 54 23 138 -3 83 -6 96 -33 134 -16 23 -51 55 -76 73 -38 25 -58
32 -115 35 -38 2 -83 1 -99 -4z"/>
<path d="M1920 1011 c-107 -14 -160 -72 -160 -178 0 -109 71 -170 212 -180 72
-6 198 17 253 46 58 31 126 85 131 105 3 12 4 64 2 116 l-3 95 -190 1 c-104 1
-215 -2 -245 -5z"/>
</g>
</svg>
