<?xml version="1.0" standalone="no"?>
<!DOCTYPE svg PUBLIC "-//W3C//DTD SVG 20010904//EN"
 "http://www.w3.org/TR/2001/REC-SVG-20010904/DTD/svg10.dtd">
<svg version="1.0" xmlns="http://www.w3.org/2000/svg"
 width="900.000000pt" height="285.000000pt" viewBox="0 0 900.000000 285.000000"
 preserveAspectRatio="xMidYMid meet">
<metadata>
Created by potrace 1.10, written by Peter Selinger 2001-2011
</metadata>
<g transform="translate(0.000000,285.000000) scale(0.100000,-0.100000)"
fill="#000000" stroke="none">
<path d="M0 1425 l0 -1425 4500 0 4500 0 0 1425 0 1425 -4500 0 -4500 0 0
-1425z m8873 1313 c16 -12 17 -104 17 -1317 0 -959 -3 -1307 -11 -1317 -10
-12 -229 -14 -1351 -14 -904 0 -1346 3 -1359 10 -19 11 -19 36 -19 1315 0
1172 2 1305 16 1319 14 14 150 16 1353 16 1054 0 1341 -3 1354 -12z m-7471
-268 c-1 -25 -8 -72 -16 -105 -8 -33 -22 -96 -31 -140 -10 -44 -23 -107 -30
-140 -19 -88 -41 -189 -60 -280 -10 -44 -23 -107 -30 -140 -8 -33 -21 -96 -30
-140 -9 -44 -21 -98 -27 -120 -6 -22 -14 -62 -19 -90 -10 -61 -33 -175 -47
-235 -6 -25 -18 -81 -27 -125 -10 -44 -23 -107 -30 -140 -8 -33 -21 -96 -30
-140 -10 -44 -23 -107 -30 -140 -8 -33 -19 -86 -26 -118 -7 -31 -18 -62 -24
-67 -8 -7 -129 -9 -331 -8 l-319 3 2 30 c0 17 6 53 13 80 6 28 18 84 27 125 8
41 21 102 28 135 27 122 44 202 60 280 36 176 44 213 60 290 10 44 23 107 30
140 8 33 21 95 29 137 42 201 49 237 61 293 8 33 21 96 30 140 9 44 21 98 27
120 6 22 14 63 19 90 4 28 13 73 19 100 6 28 19 84 28 125 9 41 21 78 27 82 5
5 154 7 330 5 l320 -2 -3 -45z m4332 -296 c19 -7 21 -41 5 -81 -6 -15 -15 -50
-20 -78 -14 -82 -30 -157 -45 -209 -9 -31 -11 -53 -5 -59 5 -5 55 -9 111 -8
64 1 107 -2 115 -9 15 -13 14 -29 -12 -142 l-16 -68 -116 0 c-64 0 -122 -4
-129 -8 -7 -5 -17 -31 -21 -58 -17 -96 -33 -170 -47 -218 -8 -26 -14 -59 -14
-72 0 -14 -6 -50 -14 -82 -8 -31 -22 -93 -31 -137 -9 -44 -23 -108 -31 -142
-20 -87 -19 -176 4 -195 20 -17 90 -37 147 -40 l40 -3 -2 -45 c0 -25 -7 -72
-15 -104 -22 -91 -18 -90 -312 -95 -218 -3 -257 -1 -310 15 -107 32 -166 80
-206 171 -25 58 -28 233 -5 338 9 39 23 104 32 145 8 41 21 102 28 135 8 33
21 95 29 137 9 43 24 111 33 151 24 108 25 107 -112 107 -114 0 -115 0 -115
24 0 13 7 43 15 66 8 23 15 58 15 76 0 29 5 36 40 54 21 11 47 20 57 20 22 0
108 27 146 46 16 8 33 14 39 14 12 0 123 66 158 95 32 26 151 145 213 213 l47
52 144 0 c80 0 151 -3 160 -6z m-3161 -433 c189 -50 294 -137 339 -280 33
-105 20 -333 -28 -507 -8 -28 -14 -61 -14 -73 0 -12 -6 -47 -14 -79 -8 -31
-20 -79 -26 -107 -7 -27 -16 -70 -20 -95 -4 -25 -13 -67 -19 -95 -7 -27 -17
-70 -22 -95 -6 -24 -15 -50 -21 -57 -15 -18 -486 -19 -511 -1 -15 12 -32 57
-55 152 -9 37 -25 43 -49 19 -72 -72 -203 -148 -319 -186 -73 -24 -261 -23
-329 1 -135 48 -213 129 -248 258 -38 137 -4 291 84 384 144 151 393 215 865
219 78 1 81 2 93 29 7 15 15 68 18 118 7 106 -9 151 -62 184 -63 39 -196 16
-246 -42 -11 -11 -30 -46 -44 -77 -14 -31 -29 -63 -34 -71 -12 -22 -442 -28
-460 -6 -12 14 -10 27 20 154 7 26 14 61 17 77 5 36 28 64 62 77 118 48 174
66 290 94 106 26 202 32 435 29 183 -3 233 -7 298 -24z m1697 4 c99 -22 195
-52 232 -71 30 -15 30 -17 23 -72 -3 -31 -12 -79 -20 -107 -7 -27 -18 -72 -25
-100 -6 -27 -16 -55 -22 -62 -8 -10 -59 -13 -209 -13 -228 0 -205 -12 -212
114 -3 60 -6 72 -31 92 -35 30 -80 30 -128 1 -61 -38 -82 -73 -83 -136 0 -65
21 -101 75 -127 19 -9 43 -21 54 -26 10 -5 39 -14 65 -18 269 -52 398 -123
468 -260 23 -46 28 -70 31 -148 4 -99 -10 -161 -54 -232 -33 -55 -125 -133
-195 -167 -153 -74 -274 -93 -590 -93 -247 0 -334 9 -469 47 -187 52 -199 61
-175 128 8 22 14 51 15 65 0 14 7 47 15 74 8 27 15 62 15 77 0 46 21 50 242
47 l203 -3 6 -65 c9 -105 54 -153 145 -154 81 -1 131 31 160 103 20 51 13 84
-29 125 -46 44 -119 77 -247 111 -196 53 -288 112 -339 219 -47 98 -45 262 5
363 31 62 144 183 171 183 3 0 14 6 22 14 41 35 218 90 346 107 104 13 451 3
535 -16z"/>
<path d="M8357 2523 c-73 -24 -139 -93 -168 -173 -51 -142 -190 -220 -320
-179 -66 20 -95 43 -240 185 -103 101 -154 144 -170 144 -30 0 -313 -282 -334
-334 -22 -52 -4 -109 44 -142 20 -13 42 -24 51 -24 8 0 32 -14 54 -30 93 -70
136 -184 105 -281 -26 -85 -61 -126 -138 -165 -72 -36 -118 -40 -183 -18 -90
31 -153 93 -171 165 -4 15 -20 41 -36 58 -26 28 -35 31 -87 31 l-57 0 -149
-147 c-114 -113 -148 -153 -148 -173 0 -20 110 -136 543 -571 298 -300 553
-551 565 -558 13 -7 32 -9 44 -5 12 4 84 69 160 145 154 153 185 172 252 149
38 -12 86 -65 86 -94 0 -25 45 -91 82 -119 39 -30 111 -57 153 -57 114 0 229
95 246 203 23 142 -52 258 -193 301 -25 7 -78 85 -78 113 0 45 33 88 179 236
100 101 147 156 149 174 3 22 -16 46 -116 147 -133 135 -144 151 -166 227 -15
49 -15 60 -1 112 8 32 27 74 41 93 30 39 96 94 113 94 6 0 36 12 66 26 208 99
190 387 -28 464 -67 24 -86 24 -150 3z"/>
<path d="M2045 1021 c-133 -45 -195 -124 -195 -249 0 -65 2 -71 35 -105 57
-59 121 -59 212 0 62 40 80 76 108 218 8 39 19 85 24 104 6 19 8 38 5 42 -9
15 -137 8 -189 -10z"/>
</g>
</svg>
