<?xml version="1.0" standalone="no"?>
<!DOCTYPE svg PUBLIC "-//W3C//DTD SVG 20010904//EN"
 "http://www.w3.org/TR/2001/REC-SVG-20010904/DTD/svg10.dtd">
<svg version="1.0" xmlns="http://www.w3.org/2000/svg"
 width="900.000000pt" height="462.000000pt" viewBox="0 0 900.000000 462.000000"
 preserveAspectRatio="xMidYMid meet">
<metadata>
Created by potrace 1.10, written by Peter Selinger 2001-2011
</metadata>
<g transform="translate(0.000000,462.000000) scale(0.100000,-0.100000)"
fill="#000000" stroke="none">
<path d="M4072 2373 l3 -2058 1245 0 1245 0 0 2055 0 2055 -1248 3 -1247 2 2
-2057z m1508 864 c100 -19 163 -35 207 -53 17 -8 36 -14 42 -14 10 0 139 -61
176 -83 120 -73 242 -200 269 -281 47 -136 14 -229 -109 -311 -25 -16 -46 -20
-120 -20 -105 1 -128 12 -232 112 -93 91 -215 147 -371 172 -91 14 -133 14
-224 0 -92 -14 -158 -43 -203 -88 -44 -43 -50 -64 -50 -171 0 -71 4 -91 23
-122 54 -87 142 -132 417 -213 33 -10 78 -24 100 -30 22 -7 67 -21 100 -30 33
-10 75 -24 93 -31 18 -8 39 -14 47 -14 30 0 224 -93 306 -146 62 -41 179 -154
179 -173 0 -5 6 -13 13 -19 21 -18 73 -135 91 -204 22 -90 22 -309 0 -381 -44
-142 -92 -225 -186 -317 -110 -109 -256 -193 -423 -244 -135 -41 -172 -46
-340 -46 -202 0 -301 15 -515 77 -181 53 -347 156 -473 294 -80 88 -109 144
-115 225 -4 65 7 97 57 163 48 64 170 119 239 108 57 -10 133 -53 197 -113
127 -120 294 -223 394 -245 20 -4 54 -12 76 -18 51 -13 278 -14 328 -1 20 6
53 14 72 19 48 12 117 67 144 114 32 54 33 201 2 251 -23 36 -104 101 -161
128 -64 30 -108 48 -119 48 -6 0 -25 6 -43 14 -18 8 -60 21 -93 30 -93 26
-167 47 -205 61 -19 7 -62 21 -95 30 -33 10 -74 24 -92 32 -17 7 -36 13 -42
13 -6 0 -19 4 -29 9 -9 5 -49 25 -89 44 -213 104 -337 232 -404 417 -21 59
-35 237 -26 335 16 178 96 322 256 458 82 70 144 105 296 166 38 15 130 40
205 55 93 18 309 15 430 -7z"/>
<path d="M524 4195 c-89 -28 -142 -73 -182 -153 l-22 -43 0 -1605 0 -1605 25
-48 c27 -55 73 -102 128 -131 54 -29 200 -29 256 1 56 29 109 85 137 144 l24
50 0 1588 0 1588 -24 53 c-43 95 -91 137 -186 163 -56 15 -103 15 -156 -2z"/>
<path d="M7590 3752 c-74 -25 -103 -45 -146 -103 -50 -69 -63 -134 -64 -320 0
-113 -3 -159 -12 -167 -7 -5 -78 -12 -158 -14 -161 -5 -198 -17 -256 -80 -53
-59 -64 -89 -64 -177 0 -89 18 -138 71 -190 61 -61 101 -73 264 -80 l150 -6 6
-740 c4 -407 11 -767 17 -800 22 -137 75 -243 166 -330 35 -33 81 -68 102 -79
21 -10 47 -22 56 -27 9 -5 52 -18 95 -29 110 -29 370 -30 458 -2 218 70 320
200 280 356 -26 98 -97 166 -173 166 -16 0 -58 -9 -93 -21 -49 -16 -82 -20
-140 -17 -84 5 -120 23 -161 81 l-23 32 -3 687 c-2 456 0 694 7 706 10 18 26
20 218 24 239 5 258 11 332 94 50 58 65 108 58 198 -7 85 -44 145 -120 197
l-50 34 -211 3 c-180 3 -213 6 -223 20 -9 11 -13 65 -13 184 0 100 -5 186 -12
213 -39 146 -211 236 -358 187z"/>
<path d="M2215 3239 c-47 -9 -71 -15 -168 -40 -21 -5 -45 -13 -55 -18 -20 -9
-80 -36 -102 -45 -8 -3 -28 -15 -45 -26 -16 -11 -37 -23 -45 -27 -40 -18 -174
-129 -233 -193 -201 -218 -322 -496 -357 -822 -17 -165 -8 -384 22 -503 5 -22
13 -58 17 -80 11 -57 55 -181 92 -256 31 -64 98 -180 108 -189 4 -3 18 -24 33
-47 40 -62 186 -202 265 -255 293 -197 626 -254 943 -161 136 40 312 141 414
237 26 25 52 46 56 46 5 0 18 -31 30 -69 25 -83 81 -152 146 -181 66 -30 199
-28 262 4 89 45 135 116 151 231 16 114 15 2049 -1 2148 -14 92 -36 135 -93
185 -108 95 -272 95 -379 1 -45 -39 -96 -129 -96 -168 0 -30 -11 -51 -26 -51
-8 0 -14 4 -14 8 0 10 -96 82 -110 82 -5 0 -10 4 -10 9 0 12 -173 96 -272 132
-46 17 -112 35 -148 40 -93 14 -326 19 -385 8z m406 -535 c41 -9 88 -22 106
-30 17 -8 34 -14 38 -14 10 0 145 -89 173 -114 71 -63 176 -230 212 -336 79
-235 61 -530 -46 -743 -100 -200 -246 -324 -449 -381 -76 -22 -303 -18 -380 6
-148 47 -292 154 -368 275 -106 167 -147 315 -147 523 0 138 7 186 47 315 110
361 460 576 814 499z"/>
</g>
</svg>
