<?xml version="1.0" standalone="no"?>
<!DOCTYPE svg PUBLIC "-//W3C//DTD SVG 20010904//EN"
 "http://www.w3.org/TR/2001/REC-SVG-20010904/DTD/svg10.dtd">
<svg version="1.0" xmlns="http://www.w3.org/2000/svg"
 width="900.000000pt" height="900.000000pt" viewBox="0 0 900.000000 900.000000"
 preserveAspectRatio="xMidYMid meet">
<metadata>
Created by potrace 1.10, written by Peter Selinger 2001-2011
</metadata>
<g transform="translate(0.000000,900.000000) scale(0.100000,-0.100000)"
fill="#000000" stroke="none">
<path d="M510 8985 c0 -9 -14 -16 -37 -20 -68 -11 -164 -46 -211 -77 -108 -70
-208 -206 -244 -328 -19 -66 -19 -8060 0 -8135 43 -167 180 -315 357 -386 l60
-24 1718 -5 c946 -3 1721 -2 1723 2 3 4 7 5716 4 6005 l0 23 -1017 2 -1018 3
-3 497 c-2 492 -2 497 18 508 12 6 73 15 138 20 64 5 146 14 182 20 107 16
210 30 295 41 44 5 94 13 110 18 17 5 52 12 80 15 27 3 63 10 80 15 16 5 93
24 170 41 77 17 169 40 205 51 36 11 73 19 82 19 9 0 20 5 23 10 3 6 17 10 30
10 14 0 42 6 62 14 21 8 65 22 98 31 33 9 98 30 145 47 212 74 258 90 310 109
30 12 64 25 75 29 80 34 171 70 179 70 5 0 27 9 50 19 23 11 59 27 81 36 22 9
54 23 70 32 49 27 54 29 205 103 80 39 172 85 205 103 33 18 92 51 130 72 39
21 89 49 113 62 l43 23 427 0 c252 0 433 -4 442 -10 13 -8 15 -466 17 -4007 2
-2199 3 -4006 3 -4016 0 -17 57 -18 1303 -15 1464 3 1327 -4 1469 80 72 42
173 137 184 172 4 12 17 37 29 56 12 19 29 60 38 90 18 62 44 103 58 95 5 -4
9 1522 9 3984 0 3269 -2 3991 -13 3991 -14 0 -57 80 -57 105 0 32 -77 158
-128 211 -88 91 -189 148 -284 160 -29 4 -59 15 -69 25 -18 18 -138 19 -3979
19 -3459 0 -3960 -2 -3960 -15z"/>
</g>
</svg>
