<?xml version="1.0" standalone="no"?>
<!DOCTYPE svg PUBLIC "-//W3C//DTD SVG 20010904//EN"
 "http://www.w3.org/TR/2001/REC-SVG-20010904/DTD/svg10.dtd">
<svg version="1.0" xmlns="http://www.w3.org/2000/svg"
 width="900.000000pt" height="321.000000pt" viewBox="0 0 900.000000 321.000000"
 preserveAspectRatio="xMidYMid meet">
<metadata>
Created by potrace 1.10, written by Peter Selinger 2001-2011
</metadata>
<g transform="translate(0.000000,321.000000) scale(0.100000,-0.100000)"
fill="#000000" stroke="none">
<path d="M0 1605 l0 -1605 4500 0 4500 0 0 1605 0 1605 -4500 0 -4500 0 0
-1605z m3004 1476 c4 -5 6 -674 6 -1486 0 -812 -2 -1481 -6 -1486 -6 -10
-2872 -13 -2898 -3 -15 6 -16 146 -16 1489 0 1177 3 1484 13 1488 23 10 2896
7 2901 -2z m516 -229 c14 -10 35 -36 47 -58 l23 -39 0 -1148 c0 -1123 0 -1149
-20 -1186 -24 -47 -54 -73 -108 -90 -35 -12 -46 -11 -85 4 -56 21 -82 48 -102
104 -13 38 -15 183 -15 1170 0 1075 1 1128 19 1166 20 44 65 90 96 98 36 10
119 -2 145 -21z m4578 -425 c20 -21 22 -35 24 -167 l3 -145 210 -5 c219 -5
231 -8 274 -54 20 -21 24 -36 24 -86 0 -50 -4 -65 -24 -86 -43 -46 -55 -49
-274 -54 l-210 -5 -3 -561 -2 -561 29 -39 c21 -30 41 -44 81 -57 63 -21 161
-21 215 -2 22 8 63 15 91 15 43 0 56 -5 89 -34 37 -31 39 -37 39 -87 0 -85
-33 -117 -174 -165 -80 -28 -320 -27 -405 1 -111 36 -207 115 -244 200 -43 96
-44 119 -50 715 l-6 575 -123 3 c-146 3 -172 14 -172 69 0 36 48 88 419 446
121 117 147 129 189 84z m-3126 -298 c233 -36 439 -195 516 -399 44 -117 45
-131 49 -721 l4 -567 -34 -43 c-21 -28 -49 -50 -80 -63 -42 -18 -50 -18 -89
-5 -24 7 -55 25 -69 39 -32 30 -59 97 -59 145 0 19 -3 35 -7 35 -5 0 -27 -18
-51 -40 -40 -38 -186 -130 -205 -130 -5 0 -23 -6 -40 -14 -125 -55 -396 -71
-523 -30 -135 43 -247 129 -307 234 -82 143 -89 330 -19 480 46 96 150 199
247 243 22 10 53 25 68 33 16 8 38 14 48 14 11 0 30 5 42 11 38 21 159 31 452
38 l290 6 3 73 c9 234 -158 372 -451 372 -62 0 -253 -25 -299 -38 -18 -6 -60
-18 -93 -29 -33 -10 -84 -18 -114 -17 -50 0 -57 3 -88 39 -28 32 -33 46 -33
88 0 103 74 149 355 221 134 34 355 45 487 25z m1842 0 c50 -6 109 -15 131
-21 22 -6 56 -14 75 -19 19 -4 51 -13 70 -20 109 -39 133 -66 133 -152 0 -56
-2 -61 -38 -95 -36 -34 -41 -36 -104 -35 -36 1 -83 9 -103 17 -21 9 -50 16
-65 16 -15 0 -60 7 -98 15 -140 29 -317 14 -420 -37 -124 -62 -171 -185 -105
-276 40 -55 111 -88 300 -137 304 -78 406 -113 495 -171 72 -47 129 -110 167
-184 33 -65 33 -66 32 -205 0 -118 -4 -146 -20 -180 -81 -165 -193 -254 -394
-311 -91 -27 -411 -26 -515 0 -197 49 -338 108 -380 158 -65 77 -27 203 67
223 35 8 91 0 133 -19 75 -34 107 -46 121 -46 9 0 37 -7 63 -15 25 -8 80 -18
123 -22 95 -11 303 3 342 23 16 8 34 14 40 14 17 1 50 31 84 79 28 38 32 52
32 105 0 50 -4 66 -23 86 -34 36 -107 69 -232 105 -33 9 -80 23 -105 31 -25 8
-54 14 -65 14 -10 0 -37 6 -60 14 -22 7 -65 21 -95 31 -126 39 -190 68 -260
122 -142 107 -180 183 -180 363 0 107 3 124 29 189 61 150 168 248 341 310 99
37 317 50 484 30z"/>
<path d="M996 2780 c-33 -16 -73 -44 -89 -62 -63 -72 -93 -185 -67 -252 5 -14
27 -45 48 -68 78 -85 96 -125 97 -208 0 -65 -3 -80 -25 -108 -13 -18 -48 -44
-76 -57 -49 -23 -63 -25 -217 -25 -185 0 -226 -10 -282 -72 -68 -73 -65 -42
-65 -744 0 -569 2 -638 16 -667 29 -56 67 -83 164 -117 19 -6 90 -14 157 -17
164 -8 239 17 300 99 44 60 30 130 -47 227 -99 127 -117 182 -87 276 26 83 62
128 143 178 187 116 464 -33 464 -249 0 -60 -4 -68 -90 -184 -65 -87 -80 -119
-80 -164 0 -71 51 -129 145 -163 38 -13 79 -18 165 -18 159 0 220 16 279 74
72 70 94 152 76 288 -13 100 18 217 69 269 27 27 83 54 111 54 35 0 91 -28
160 -79 33 -25 62 -48 65 -52 3 -3 24 -16 47 -28 136 -69 315 46 353 226 41
199 -135 394 -324 359 -23 -5 -60 -28 -105 -66 -38 -33 -72 -60 -77 -60 -4 0
-15 -7 -25 -16 -28 -26 -127 -29 -169 -6 -80 44 -119 162 -107 324 12 151 -24
245 -115 305 -39 26 -42 27 -201 25 -127 -1 -173 2 -211 14 -162 54 -179 194
-44 356 44 54 77 121 78 158 0 58 -35 143 -80 191 -62 67 -115 89 -215 89 -69
0 -88 -4 -139 -30z"/>
<path d="M4625 1115 c-27 -8 -58 -14 -68 -15 -25 0 -106 -37 -144 -66 -58 -44
-76 -86 -75 -180 0 -69 4 -90 23 -121 39 -63 73 -90 151 -119 54 -20 220 -29
273 -15 22 5 58 14 80 20 36 9 125 50 180 84 27 16 93 69 132 105 l32 30 1
133 c1 74 1 140 1 147 -1 18 -517 16 -586 -3z"/>
</g>
</svg>
