<?xml version="1.0" standalone="no"?>
<!DOCTYPE svg PUBLIC "-//W3C//DTD SVG 20010904//EN"
 "http://www.w3.org/TR/2001/REC-SVG-20010904/DTD/svg10.dtd">
<svg version="1.0" xmlns="http://www.w3.org/2000/svg"
 width="900.000000pt" height="294.000000pt" viewBox="0 0 900.000000 294.000000"
 preserveAspectRatio="xMidYMid meet">
<metadata>
Created by potrace 1.10, written by Peter Selinger 2001-2011
</metadata>
<g transform="translate(0.000000,294.000000) scale(0.100000,-0.100000)"
fill="#000000" stroke="none">
<path d="M4680 2848 c-68 -14 -150 -40 -195 -62 -53 -26 -164 -107 -195 -143
-79 -89 -160 -238 -160 -294 0 -27 3 -30 23 -24 12 4 31 12 42 19 11 6 47 20
80 30 33 10 74 23 90 28 112 36 411 47 605 23 112 -13 140 -19 245 -52 232
-71 429 -258 510 -483 14 -41 55 -237 55 -266 0 -7 -7 -20 -16 -28 -12 -13
-42 -16 -152 -16 -75 -1 -195 -5 -267 -9 -72 -5 -137 -5 -146 0 -10 5 -19 27
-23 53 -4 25 -11 48 -17 51 -5 4 -9 16 -9 27 0 44 -86 154 -145 184 -71 37
-158 54 -275 54 -237 -1 -400 -82 -417 -209 -10 -70 48 -152 135 -192 69 -32
81 -36 152 -59 36 -11 79 -25 96 -30 16 -6 50 -14 75 -19 127 -28 425 -112
486 -138 17 -7 36 -13 42 -13 6 0 19 -4 29 -10 9 -5 42 -21 72 -35 205 -96
360 -271 416 -469 48 -167 37 -435 -22 -548 -8 -14 -14 -31 -14 -37 0 -6 -12
-30 -26 -52 -17 -28 -22 -45 -16 -51 7 -7 111 -9 304 -5 309 5 337 9 448 60
152 70 284 201 345 343 58 136 55 82 55 989 0 808 -1 834 -20 896 -37 116 -86
201 -161 280 -110 115 -227 176 -395 208 -74 14 -1566 13 -1634 -1z"/>
<path d="M378 2593 c-12 -3 -18 -20 -23 -61 -8 -76 -34 -263 -46 -337 -6 -33
-15 -94 -19 -135 -5 -41 -13 -104 -19 -140 -5 -36 -17 -119 -26 -185 -9 -66
-21 -147 -26 -180 -6 -33 -15 -94 -19 -135 -5 -41 -13 -104 -19 -140 -5 -36
-17 -119 -26 -185 -9 -66 -23 -158 -31 -205 -8 -47 -14 -101 -14 -120 -1 -19
-7 -64 -15 -100 -8 -36 -14 -82 -15 -103 0 -21 -7 -77 -17 -123 -11 -56 -13
-88 -6 -95 11 -11 1473 -13 1484 -2 4 5 9 31 12 58 4 51 16 138 43 301 7 49
14 111 14 137 l0 47 -449 0 c-255 0 -452 4 -455 9 -6 9 4 117 24 251 6 41 17
118 25 170 7 52 19 129 25 170 7 41 16 107 20 145 7 71 20 160 45 320 8 50 16
108 18 130 4 42 19 141 42 290 26 165 28 212 10 219 -19 7 -510 6 -537 -1z"/>
<path d="M2900 2594 c-8 -3 -53 -82 -99 -177 -85 -174 -237 -484 -484 -987
-74 -151 -196 -401 -272 -555 -75 -154 -164 -334 -196 -399 -35 -69 -56 -123
-51 -128 5 -5 136 -9 292 -9 305 0 310 1 326 55 3 11 17 46 31 76 55 120 66
146 78 175 28 65 50 111 64 128 13 15 40 17 311 17 l297 0 17 -58 c9 -32 16
-69 16 -82 0 -13 6 -49 14 -79 8 -31 19 -84 25 -118 5 -35 16 -74 23 -89 l13
-26 283 1 c155 0 287 1 292 1 14 0 12 58 -5 105 -8 22 -15 51 -15 64 0 13 -6
47 -14 75 -8 28 -22 87 -31 131 -9 44 -22 107 -30 140 -7 33 -20 96 -30 140
-9 44 -23 105 -30 135 -7 30 -21 91 -30 135 -9 44 -22 107 -30 140 -7 33 -20
96 -30 140 -9 44 -23 105 -30 135 -7 30 -21 91 -30 135 -9 44 -23 106 -31 137
-8 32 -14 66 -14 77 0 10 -6 41 -14 67 -8 27 -22 85 -31 129 -33 158 -45 211
-63 290 l-19 80 -244 1 c-134 1 -251 0 -259 -2z m180 -702 c0 -31 7 -102 15
-156 8 -55 15 -122 15 -150 0 -28 7 -96 15 -151 24 -155 34 -145 -154 -145
-170 0 -176 2 -164 51 4 13 12 35 20 49 7 14 13 33 13 42 0 9 4 19 9 23 5 3
12 19 16 36 4 17 13 42 21 57 8 15 14 35 14 44 0 9 4 19 9 23 5 3 12 19 16 36
4 17 13 42 21 57 8 15 14 34 14 42 0 8 7 24 15 34 8 11 15 29 15 40 0 12 7 30
15 40 8 11 15 30 15 42 0 23 37 57 52 48 4 -3 8 -31 8 -62z"/>
<path d="M7144 2588 c-4 -6 -10 -41 -14 -77 -7 -66 -18 -135 -47 -308 -8 -51
-13 -99 -9 -108 5 -14 40 -15 288 -15 156 0 289 0 296 0 20 0 8 -153 -29 -365
-6 -33 -15 -96 -19 -140 -5 -44 -13 -109 -19 -145 -5 -36 -17 -119 -26 -185
-9 -66 -21 -149 -27 -185 -6 -36 -14 -96 -18 -135 -10 -90 -28 -223 -41 -300
-11 -61 -30 -210 -32 -255 l-2 -25 270 -5 c229 -4 272 -3 287 10 13 11 21 39
28 100 13 119 29 230 46 330 8 47 14 96 14 110 0 14 6 68 14 120 9 52 22 149
31 215 9 66 21 147 26 180 6 33 15 96 19 140 9 84 22 171 45 321 8 49 15 109
15 131 0 24 7 49 18 62 17 20 25 21 312 24 l295 2 6 40 c4 22 12 74 18 115 35
216 41 259 43 305 l3 50 -892 3 c-674 1 -894 -1 -899 -10z"/>
<path d="M4107 1033 c-10 -9 -8 -335 1 -351 5 -8 26 -11 56 -10 l48 3 18 -54
c10 -29 21 -67 24 -82 15 -75 90 -197 156 -256 43 -38 118 -72 208 -94 138
-34 327 -17 450 41 131 62 214 210 182 327 -34 122 -129 176 -455 257 -352 87
-468 124 -613 195 -69 35 -66 33 -75 24z"/>
</g>
</svg>
