<?xml version="1.0" standalone="no"?>
<!DOCTYPE svg PUBLIC "-//W3C//DTD SVG 20010904//EN"
 "http://www.w3.org/TR/2001/REC-SVG-20010904/DTD/svg10.dtd">
<svg version="1.0" xmlns="http://www.w3.org/2000/svg"
 width="900.000000pt" height="1302.000000pt" viewBox="0 0 900.000000 1302.000000"
 preserveAspectRatio="xMidYMid meet">
<metadata>
Created by potrace 1.10, written by Peter Selinger 2001-2011
</metadata>
<g transform="translate(0.000000,1302.000000) scale(0.100000,-0.100000)"
fill="#000000" stroke="none">
<path d="M17 12973 c-12 -11 -8 -12932 3 -12954 11 -19 71 -19 4468 -19 3545
0 4464 3 4485 13 l27 12 0 6471 0 6472 -22 6 c-31 8 -8953 8 -8961 -1z m7733
-463 c98 -12 165 -35 270 -91 201 -108 340 -258 419 -449 12 -30 26 -64 31
-75 35 -76 47 -361 22 -480 -26 -119 -94 -262 -172 -358 -53 -65 -125 -137
-175 -172 -75 -54 -225 -125 -264 -125 -9 0 -29 -7 -45 -15 -15 -8 -32 -15
-37 -15 -21 0 -151 -67 -225 -117 -81 -53 -126 -96 -194 -183 -40 -51 -90
-126 -90 -136 0 -3 -6 -20 -14 -37 -64 -140 -80 -217 -81 -377 0 -86 5 -152
14 -180 30 -100 50 -157 65 -185 9 -16 16 -33 16 -37 0 -11 61 -109 89 -143
14 -16 198 -203 408 -415 211 -212 393 -401 405 -420 31 -49 32 -180 1 -228
-11 -18 -247 -261 -525 -540 -453 -456 -507 -514 -535 -572 -44 -92 -53 -127
-53 -206 0 -121 40 -221 123 -305 53 -54 162 -119 200 -119 9 0 18 -4 21 -9 3
-5 25 -13 49 -19 45 -12 189 -98 247 -147 100 -88 184 -198 232 -304 16 -36
33 -74 39 -84 12 -22 26 -86 40 -187 13 -92 5 -254 -17 -341 -73 -286 -309
-545 -575 -633 -139 -45 -164 -49 -309 -49 -172 0 -231 13 -398 89 -114 52
-276 189 -339 287 -16 23 -31 44 -34 47 -12 10 -62 126 -85 200 -53 166 -114
240 -251 306 -74 36 -75 36 -186 32 -100 -4 -118 -8 -174 -36 -73 -37 -73 -37
-621 -580 -390 -388 -437 -431 -477 -441 -56 -14 -104 -14 -161 0 -41 11 -187
154 -1966 1933 -1673 1673 -1924 1928 -1945 1974 -27 62 -29 95 -7 165 15 49
49 84 498 532 514 514 501 503 651 551 171 54 371 -9 475 -151 44 -60 66 -104
75 -147 3 -18 10 -42 15 -53 5 -11 18 -43 29 -70 45 -119 136 -240 243 -323
69 -54 230 -142 258 -142 9 0 20 -4 25 -8 6 -5 49 -17 96 -26 92 -19 264 -18
368 3 53 10 137 38 156 51 6 4 21 11 35 15 53 16 188 113 263 190 38 39 127
164 127 178 0 4 10 24 23 45 97 155 120 464 50 672 -36 106 -144 286 -207 343
-89 81 -248 187 -279 187 -9 0 -18 4 -22 9 -3 5 -20 13 -37 17 -18 3 -39 10
-48 14 -8 4 -41 19 -74 34 -154 71 -249 225 -249 406 0 98 20 170 68 245 18
28 262 280 542 561 l510 512 56 12 c66 13 158 0 191 -27 12 -10 224 -220 471
-467 248 -247 482 -472 520 -501 112 -84 168 -111 355 -167 30 -8 99 -13 205
-13 154 0 164 2 263 34 118 38 194 76 272 136 147 113 247 262 311 460 63 196
129 306 256 426 104 98 211 162 353 213 92 32 274 44 420 26z m1071 -8260 c19
-11 19 -44 19 -2036 0 -1377 -3 -2032 -10 -2045 -11 -19 -70 -19 -4335 -19
-4265 0 -4324 0 -4335 19 -16 30 -14 4063 2 4079 16 16 8629 18 8659 2z"/>
<path d="M963 3833 c-49 -11 -73 -24 -111 -58 -96 -86 -87 79 -87 -1590 l0
-1470 27 -46 c57 -94 118 -129 228 -129 110 0 168 31 228 123 l27 42 0 1485 0
1485 -30 44 c-67 99 -167 139 -282 114z"/>
<path d="M7260 3397 c-65 -38 -114 -111 -124 -183 -3 -26 -6 -109 -6 -185 0
-76 -4 -140 -8 -143 -5 -3 -68 -7 -140 -10 -112 -4 -139 -8 -178 -28 -51 -25
-90 -66 -111 -115 -19 -47 -16 -150 6 -198 21 -46 92 -115 119 -115 10 0 22
-4 28 -9 5 -5 68 -11 141 -13 72 -2 134 -5 136 -8 3 -3 7 -320 10 -705 4 -661
5 -704 24 -765 32 -105 63 -160 128 -226 109 -111 241 -154 469 -154 153 1
213 13 305 66 60 35 88 60 119 109 52 80 29 217 -46 272 -43 32 -88 37 -162
18 -114 -30 -151 -30 -211 -1 -68 33 -88 61 -100 139 -5 34 -9 324 -9 644 0
516 2 583 16 597 13 13 44 16 185 16 203 0 246 10 307 73 109 113 74 304 -69
379 -39 20 -59 22 -227 24 -118 2 -189 7 -196 14 -7 7 -13 80 -16 193 -5 178
-6 183 -34 231 -19 31 -48 60 -82 82 -49 32 -59 34 -136 34 -77 0 -89 -3 -138
-33z"/>
<path d="M2650 2940 c-47 -11 -94 -25 -105 -30 -11 -5 -43 -18 -71 -29 -104
-40 -235 -132 -339 -239 -36 -36 -65 -69 -65 -73 0 -3 -11 -19 -25 -35 -25
-28 -90 -135 -112 -184 -33 -71 -53 -120 -68 -170 -9 -30 -21 -66 -26 -80 -4
-14 -13 -60 -19 -104 -5 -43 -13 -82 -16 -87 -13 -21 -5 -319 10 -419 22 -135
71 -298 115 -380 110 -205 223 -338 376 -443 42 -28 141 -79 230 -118 11 -5
58 -18 105 -30 70 -18 115 -22 250 -23 180 0 237 11 377 76 34 15 64 28 68 28
3 0 11 5 18 11 7 5 40 28 73 49 34 22 81 58 104 80 55 52 77 52 85 3 12 -77
65 -147 137 -184 56 -28 182 -27 238 4 43 22 94 78 120 131 22 44 22 2068 0
2112 -27 55 -78 109 -122 132 -60 29 -170 31 -232 2 -68 -30 -123 -100 -137
-172 -13 -67 -30 -80 -62 -51 -41 38 -152 110 -202 132 -27 13 -69 32 -93 43
-93 44 -179 59 -357 63 -143 4 -183 1 -255 -15z m502 -480 c228 -74 376 -242
454 -515 12 -44 17 -100 18 -210 1 -176 -15 -255 -75 -381 -85 -180 -202 -287
-394 -363 -43 -16 -187 -27 -270 -20 -410 37 -679 498 -565 969 37 151 75 227
180 353 25 30 111 93 171 125 60 32 148 59 214 66 73 7 209 -5 267 -24z"/>
<path d="M5355 2955 c-5 -1 -46 -11 -90 -20 -44 -10 -84 -22 -89 -26 -6 -5
-16 -9 -24 -9 -24 0 -158 -66 -220 -109 -85 -57 -181 -165 -224 -253 -21 -41
-38 -84 -38 -96 0 -11 -5 -33 -11 -48 -15 -42 -12 -219 6 -299 24 -108 70
-189 155 -276 98 -99 195 -153 395 -221 33 -11 69 -24 80 -28 29 -12 192 -60
245 -72 25 -6 50 -14 55 -18 6 -4 26 -11 45 -15 19 -4 41 -11 50 -16 8 -4 40
-19 70 -33 82 -36 139 -78 171 -126 25 -38 29 -52 29 -115 0 -112 -37 -176
-126 -219 -21 -10 -47 -23 -56 -27 -36 -18 -185 -27 -285 -19 -175 15 -303 74
-468 216 -137 118 -156 128 -229 127 -80 -1 -142 -29 -194 -88 -59 -67 -66
-143 -22 -240 25 -55 158 -187 242 -241 107 -69 252 -128 373 -153 28 -5 73
-15 100 -21 28 -7 136 -12 240 -13 169 -1 199 1 270 22 148 42 221 74 331 147
59 39 171 149 180 176 3 10 9 18 12 18 8 0 30 40 56 100 79 184 55 446 -56
608 -38 56 -145 162 -163 162 -7 0 -17 6 -23 13 -11 13 -105 62 -177 92 -22 9
-49 20 -60 25 -11 4 -54 18 -95 30 -41 13 -84 26 -95 30 -11 5 -38 13 -60 18
-22 6 -64 18 -92 26 -29 9 -75 22 -102 30 -27 7 -74 25 -105 40 -30 14 -58 26
-63 26 -4 0 -30 19 -56 41 -68 58 -90 107 -90 196 1 62 5 77 30 115 33 50 89
89 153 109 58 17 287 17 355 0 49 -12 175 -66 185 -80 3 -3 23 -18 45 -33 22
-15 45 -36 52 -47 7 -11 34 -34 60 -52 44 -31 54 -33 128 -34 71 0 85 3 122
28 24 15 55 46 70 69 93 139 -57 366 -315 478 -26 12 -54 24 -62 29 -9 5 -31
12 -50 16 -19 4 -41 11 -50 16 -45 25 -225 49 -362 48 -79 0 -147 -2 -153 -4z"/>
</g>
</svg>
