<?xml version="1.0" standalone="no"?>
<!DOCTYPE svg PUBLIC "-//W3C//DTD SVG 20010904//EN"
 "http://www.w3.org/TR/2001/REC-SVG-20010904/DTD/svg10.dtd">
<svg version="1.0" xmlns="http://www.w3.org/2000/svg"
 width="900.000000pt" height="900.000000pt" viewBox="0 0 900.000000 900.000000"
 preserveAspectRatio="xMidYMid meet">
<metadata>
Created by potrace 1.10, written by Peter Selinger 2001-2011
</metadata>
<g transform="translate(0.000000,900.000000) scale(0.100000,-0.100000)"
fill="#000000" stroke="none">
<path d="M490 8986 c0 -15 -10 -19 -70 -32 -64 -12 -176 -75 -235 -131 -46
-44 -123 -162 -144 -223 -11 -30 -23 -102 -27 -160 -7 -104 -13 -7363 -6
-7388 2 -6 9 -12 15 -12 11 0 213 78 272 105 17 8 84 35 150 60 66 25 134 52
150 60 52 24 260 105 271 105 9 0 64 -81 277 -405 36 -55 84 -125 106 -155 23
-30 49 -67 58 -81 126 -184 514 -680 558 -711 5 -4 1234 -7 2730 -5 l2720 2
-3 80 c-5 121 -71 303 -171 475 -53 92 -165 229 -244 299 -86 76 -229 179
-317 231 -41 24 -86 50 -100 59 -51 32 -374 186 -431 206 -21 8 -63 26 -96 40
-89 42 -92 43 -183 76 -47 17 -112 41 -145 54 -33 12 -69 25 -80 29 -11 4 -31
12 -45 18 -14 6 -52 19 -85 30 -33 11 -73 26 -90 33 -28 13 -67 27 -247 90
-40 14 -82 30 -93 35 -11 5 -49 19 -84 31 -35 12 -75 28 -90 35 -14 8 -35 14
-46 14 -12 0 -25 4 -30 9 -6 5 -53 23 -105 41 -52 18 -108 38 -125 46 -26 11
-70 27 -205 75 -56 20 -73 26 -105 39 -16 7 -57 21 -90 32 -33 11 -73 26 -90
33 -16 7 -43 18 -60 23 -90 31 -412 149 -440 161 -11 5 -49 19 -85 31 -36 12
-74 26 -85 31 -11 4 -49 18 -85 30 -36 12 -69 25 -75 29 -5 4 -41 17 -80 30
-38 12 -74 26 -80 30 -5 4 -35 15 -65 24 -30 10 -68 24 -85 31 -42 19 -211 85
-218 85 -3 0 -35 14 -70 30 -36 17 -68 30 -70 30 -3 0 -35 14 -70 30 -36 17
-68 30 -71 30 -8 0 -130 56 -181 83 -22 11 -47 24 -55 28 -8 3 -35 17 -60 30
-25 12 -53 26 -62 31 -114 53 -385 213 -558 328 -109 73 -261 188 -273 207 -4
7 -13 13 -20 13 -32 0 -358 348 -440 468 -21 32 -46 66 -56 77 -10 11 -21 27
-25 35 -3 8 -15 29 -25 45 -21 32 -90 168 -126 250 -92 205 -141 389 -175 660
-11 86 -11 371 0 480 21 219 85 453 175 650 13 28 33 73 46 100 12 28 41 81
65 118 24 37 44 70 44 73 0 23 215 293 318 401 20 21 53 57 72 78 20 22 74 73
120 114 47 41 86 78 88 82 2 5 45 39 96 76 50 38 105 78 121 90 60 45 161 113
169 113 4 0 22 11 40 25 18 14 36 25 40 25 4 0 26 13 49 28 52 35 354 184 422
207 28 10 66 24 85 32 73 30 126 49 180 65 19 6 42 13 50 16 8 3 38 11 65 18
28 6 75 19 105 28 100 30 335 72 475 86 55 6 120 15 145 21 83 20 518 30 802
19 149 -5 274 -12 278 -15 5 -3 69 -12 142 -21 121 -13 175 -22 338 -54 102
-20 155 -32 210 -50 30 -9 89 -25 130 -36 41 -10 86 -24 100 -31 14 -7 32 -13
40 -13 9 0 20 -4 25 -8 6 -4 37 -18 70 -31 119 -45 225 -92 334 -146 61 -30
113 -55 115 -55 3 0 80 -45 172 -101 138 -83 226 -141 309 -206 6 -4 33 -24
60 -42 28 -19 53 -39 56 -44 14 -20 42 0 58 43 10 25 32 77 50 115 18 39 40
86 48 105 9 19 28 62 43 95 15 33 44 95 64 138 20 44 36 83 36 88 0 25 55 29
393 29 290 0 357 -3 366 -14 6 -7 18 -36 25 -62 8 -27 22 -74 31 -104 9 -30
21 -73 26 -95 5 -22 13 -49 18 -60 5 -11 16 -49 26 -85 9 -36 23 -83 30 -105
25 -79 43 -141 50 -175 4 -19 11 -39 15 -45 4 -5 17 -50 30 -99 12 -49 26 -97
30 -105 8 -15 18 -50 41 -146 5 -22 13 -49 18 -60 5 -11 21 -60 34 -110 50
-176 68 -240 78 -270 6 -16 21 -68 34 -115 13 -47 35 -123 49 -170 15 -47 36
-116 47 -155 12 -38 25 -81 29 -95 5 -14 12 -41 16 -60 3 -19 10 -41 14 -50 5
-8 16 -44 25 -80 22 -81 54 -188 66 -218 5 -13 9 -32 9 -43 0 -12 7 -35 15
-52 8 -18 23 -66 34 -107 10 -41 31 -113 45 -160 15 -47 36 -116 47 -155 12
-38 24 -81 29 -95 17 -53 33 -140 27 -147 -9 -8 -108 -42 -125 -43 -8 0 -28
-6 -45 -14 -18 -8 -63 -24 -102 -36 -38 -12 -79 -26 -90 -30 -52 -21 -112 -40
-124 -40 -7 0 -27 -6 -44 -14 -18 -8 -63 -24 -102 -36 -38 -12 -79 -26 -90
-30 -64 -27 -209 -71 -219 -67 -12 5 -15 11 -146 282 -45 94 -93 184 -106 202
-13 17 -24 35 -24 39 0 4 -11 24 -23 43 -13 20 -43 70 -67 111 -24 41 -63 102
-85 135 -82 120 -159 231 -174 251 -9 12 -23 32 -31 44 -46 69 -338 398 -425
480 -44 40 -102 95 -130 121 -41 39 -221 188 -325 270 -14 10 -39 30 -56 44
-41 32 -309 211 -343 228 -28 15 -86 46 -220 121 -46 25 -85 46 -87 46 -1 0
-64 29 -139 65 -75 36 -143 65 -151 65 -8 0 -22 4 -32 10 -27 15 -260 90 -327
105 -33 7 -94 22 -137 34 -116 30 -280 53 -502 71 -140 11 -331 3 -501 -21
-38 -5 -101 -14 -139 -19 -63 -9 -137 -29 -301 -82 -63 -20 -92 -32 -191 -79
-33 -16 -64 -29 -67 -29 -10 0 -112 -63 -115 -72 -2 -4 -8 -8 -12 -8 -25 0
-177 -118 -270 -210 -98 -96 -139 -146 -180 -219 -8 -14 -25 -40 -38 -58 -12
-17 -22 -34 -22 -37 0 -4 -13 -35 -30 -70 -35 -76 -45 -113 -72 -266 -17 -101
-18 -127 -9 -209 13 -105 49 -271 62 -286 5 -5 9 -16 9 -25 0 -44 139 -273
212 -350 61 -64 197 -182 250 -218 29 -19 55 -38 58 -41 3 -4 16 -12 30 -19
14 -7 39 -21 55 -32 17 -11 37 -23 45 -27 8 -4 42 -23 75 -43 51 -31 276 -144
370 -185 17 -7 58 -27 93 -44 34 -17 66 -31 71 -31 5 0 38 -13 73 -29 35 -16
86 -37 113 -47 28 -10 61 -24 75 -31 14 -7 32 -13 41 -13 8 0 19 -4 25 -9 5
-5 59 -26 119 -46 61 -21 115 -41 120 -45 6 -5 26 -13 45 -18 19 -6 94 -31
165 -57 72 -26 148 -53 170 -60 22 -8 99 -35 170 -60 72 -26 148 -53 170 -60
22 -8 99 -34 170 -60 160 -57 279 -99 325 -115 19 -6 44 -15 55 -20 11 -5 63
-23 115 -40 52 -18 109 -38 125 -46 17 -7 46 -17 65 -22 44 -13 258 -89 285
-101 11 -6 36 -14 55 -20 44 -12 258 -88 285 -101 11 -5 49 -19 85 -31 36 -12
70 -25 75 -29 6 -4 40 -17 78 -29 37 -12 79 -29 95 -37 15 -7 31 -14 35 -14 4
0 37 -13 72 -30 35 -16 68 -30 73 -30 5 0 36 -13 70 -30 34 -16 66 -30 71 -30
4 0 34 -13 67 -29 32 -15 88 -41 123 -57 152 -69 494 -245 499 -256 2 -5 8 -8
14 -8 13 0 231 -129 348 -206 262 -174 516 -390 625 -534 48 -63 96 -124 128
-165 49 -62 187 -305 244 -430 52 -116 66 -152 92 -244 30 -106 31 -30 31
3656 0 2189 -4 3721 -9 3768 -13 108 -40 175 -108 265 -65 86 -165 159 -266
192 -101 34 -108 38 -102 48 4 7 -1341 10 -3994 10 -3466 0 -4001 -2 -4001
-14z"/>
</g>
</svg>
