<?xml version="1.0" standalone="no"?>
<!DOCTYPE svg PUBLIC "-//W3C//DTD SVG 20010904//EN"
 "http://www.w3.org/TR/2001/REC-SVG-20010904/DTD/svg10.dtd">
<svg version="1.0" xmlns="http://www.w3.org/2000/svg"
 width="900.000000pt" height="903.000000pt" viewBox="0 0 900.000000 903.000000"
 preserveAspectRatio="xMidYMid meet">
<metadata>
Created by potrace 1.10, written by Peter Selinger 2001-2011
</metadata>
<g transform="translate(0.000000,903.000000) scale(0.100000,-0.100000)"
fill="#000000" stroke="none">
<path d="M435 8971 c-171 -45 -297 -152 -379 -325 -59 -125 -56 88 -56 -3940
1 -2030 5 -3818 10 -3973 10 -325 17 -358 99 -478 87 -129 224 -216 379 -241
128 -21 7870 -21 8008 0 256 38 440 230 469 489 4 36 12 60 21 64 21 8 21
7848 0 7856 -9 4 -17 30 -21 74 -9 86 -28 143 -71 214 -31 52 -158 189 -175
189 -5 0 -30 13 -57 29 -26 15 -61 31 -78 34 -16 3 -52 11 -80 17 -32 6 -199
9 -470 8 l-419 -3 -3 -227 -2 -228 -1464 0 c-1326 0 -1464 -1 -1470 -16 -10
-26 -6 -5577 4 -5709 32 -430 59 -562 155 -762 135 -279 450 -503 845 -600 64
-15 112 -18 330 -16 140 1 278 6 305 12 28 6 79 16 115 21 71 11 127 23 205
45 28 8 77 21 110 30 60 17 112 35 173 61 18 8 37 14 43 14 6 0 25 6 42 14 18
8 58 24 89 35 32 11 66 25 75 31 15 8 98 46 225 104 31 14 59 30 208 113 30
17 73 41 95 53 22 12 52 29 67 38 50 32 218 137 248 155 16 10 34 16 40 12 6
-4 10 -150 10 -429 0 -474 8 -428 -79 -478 -78 -45 -195 -112 -223 -128 -112
-62 -458 -228 -560 -269 -43 -17 -111 -44 -150 -61 -69 -27 -137 -51 -338
-113 -140 -44 -273 -76 -403 -97 -33 -6 -64 -13 -70 -17 -15 -9 -148 -27 -462
-62 -144 -17 -605 -14 -698 4 -43 8 -97 15 -120 15 -23 0 -85 10 -137 21 -52
12 -117 26 -145 31 -62 13 -329 95 -370 113 -109 49 -156 69 -197 86 -26 10
-81 39 -122 64 -41 25 -78 45 -81 45 -4 0 -65 39 -137 86 -382 254 -578 522
-667 911 -44 194 -51 230 -51 267 0 21 -7 80 -15 130 -31 196 -35 555 -35
3392 0 2360 -2 2833 -13 2843 -10 8 -256 12 -863 13 l-849 3 -5 225 -5 225
-380 2 c-337 1 -388 -1 -450 -16z"/>
</g>
</svg>
