<?xml version="1.0" standalone="no"?>
<!DOCTYPE svg PUBLIC "-//W3C//DTD SVG 20010904//EN"
 "http://www.w3.org/TR/2001/REC-SVG-20010904/DTD/svg10.dtd">
<svg version="1.0" xmlns="http://www.w3.org/2000/svg"
 width="900.000000pt" height="729.000000pt" viewBox="0 0 900.000000 729.000000"
 preserveAspectRatio="xMidYMid meet">
<metadata>
Created by potrace 1.10, written by Peter Selinger 2001-2011
</metadata>
<g transform="translate(0.000000,729.000000) scale(0.100000,-0.100000)"
fill="#000000" stroke="none">
<path d="M292 7072 c-19 -3 -23 -9 -20 -30 l3 -27 4161 -3 c3520 -2 4163 0
4173 12 13 15 5 46 -13 46 -2783 3 -8288 4 -8304 2z"/>
<path d="M3097 6505 c-37 -26 -77 -89 -77 -122 0 -10 -6 -47 -15 -83 -14 -63
-30 -143 -61 -297 -8 -40 -21 -106 -29 -145 -34 -172 -47 -236 -57 -278 -6
-25 -14 -67 -18 -95 -4 -27 -13 -75 -19 -105 -7 -30 -19 -88 -27 -127 -37
-185 -47 -232 -60 -285 -8 -32 -14 -69 -14 -83 0 -14 -6 -51 -14 -83 -15 -62
-36 -158 -91 -437 -9 -41 -22 -110 -31 -152 -9 -43 -22 -109 -29 -148 -8 -38
-21 -105 -30 -147 -8 -43 -22 -112 -30 -153 -9 -41 -22 -109 -30 -150 -9 -41
-22 -109 -30 -150 -9 -41 -22 -109 -30 -150 -9 -41 -22 -110 -31 -152 -8 -43
-22 -107 -30 -143 -24 -112 -28 -191 -11 -232 21 -51 88 -98 139 -98 45 0 115
37 138 72 16 26 37 94 45 148 3 19 12 67 20 105 8 39 21 106 30 150 9 44 21
100 26 125 6 25 15 71 19 103 5 32 14 65 21 73 10 12 77 14 415 14 l403 0 15
-52 c8 -29 22 -89 31 -133 9 -44 23 -114 31 -155 9 -41 22 -102 29 -135 8 -33
16 -76 19 -95 18 -113 48 -169 107 -199 73 -38 146 -20 196 48 38 50 39 130 4
276 -9 38 -23 105 -56 273 -8 39 -21 106 -30 147 -8 41 -21 109 -30 150 -8 41
-21 109 -30 150 -14 69 -23 115 -60 295 -8 36 -21 100 -29 143 -9 42 -23 112
-31 155 -20 98 -42 207 -60 300 -45 225 -73 363 -90 442 -8 36 -16 79 -18 95
-2 17 -9 50 -15 75 -6 25 -18 80 -26 123 -9 42 -22 111 -31 152 -8 41 -21 108
-29 148 -31 154 -47 234 -61 297 -9 36 -15 74 -15 84 0 11 -6 42 -14 70 -16
57 -34 144 -47 228 -11 74 -37 118 -85 145 -54 31 -118 30 -167 -2z m101
-1056 c1 -19 8 -61 16 -94 14 -62 35 -162 60 -288 29 -147 44 -217 91 -447 8
-36 21 -100 29 -143 39 -193 48 -235 58 -277 6 -25 13 -58 15 -75 4 -32 24
-127 49 -234 8 -36 11 -68 7 -72 -6 -6 -544 -13 -670 -9 -17 0 -16 31 2 110 8
36 21 99 29 140 37 183 48 239 62 297 8 34 14 72 14 85 0 12 6 52 15 88 18 83
35 165 119 593 8 39 22 106 30 147 9 41 16 84 16 94 0 34 33 127 44 123 6 -2
12 -19 14 -38z"/>
<path d="M5200 6505 c-68 -12 -125 -29 -175 -50 -16 -7 -37 -16 -45 -19 -42
-18 -133 -81 -177 -122 -46 -44 -133 -160 -133 -178 0 -7 -5 -17 -12 -24 -6
-6 -18 -28 -25 -49 -55 -150 -83 -294 -83 -418 0 -88 24 -242 46 -293 8 -18
14 -40 14 -48 0 -9 6 -28 14 -42 7 -15 24 -47 36 -72 107 -210 238 -332 777
-722 147 -107 223 -176 303 -278 64 -81 74 -97 107 -165 37 -76 53 -116 53
-130 0 -8 7 -35 15 -60 12 -34 16 -87 16 -208 0 -168 -7 -207 -57 -307 -23
-45 -139 -161 -184 -184 -104 -52 -139 -60 -295 -60 -121 -1 -163 3 -215 18
-75 23 -152 68 -201 119 -73 76 -129 234 -129 367 0 109 -40 172 -127 200
-110 34 -223 -61 -223 -189 0 -66 27 -248 44 -304 38 -121 135 -269 239 -362
33 -30 64 -55 68 -55 4 0 27 -13 51 -28 58 -38 178 -87 238 -96 19 -3 55 -10
80 -15 25 -6 95 -10 156 -11 219 0 427 65 589 185 244 181 366 529 310 888 -9
61 -23 130 -31 152 -8 23 -14 48 -14 57 0 44 -114 268 -184 362 -68 92 -235
262 -293 299 -22 14 -46 32 -54 39 -15 15 -77 60 -189 136 -64 44 -140 101
-150 112 -3 3 -23 19 -45 35 -208 152 -328 297 -391 470 -26 74 -27 318 0 395
56 161 139 252 280 304 69 26 297 27 359 1 130 -54 174 -99 224 -231 23 -62
26 -84 27 -219 2 -138 4 -154 26 -199 35 -71 65 -89 144 -90 50 -1 69 3 86 19
31 28 70 91 70 114 0 10 7 35 15 54 17 42 19 152 4 247 -5 36 -12 83 -15 105
-7 48 -24 96 -72 195 -28 57 -57 96 -122 160 -85 86 -145 124 -260 165 -118
42 -349 56 -490 30z"/>
<path d="M358 6482 c-31 -20 -59 -55 -76 -95 -18 -43 -17 -3477 1 -3530 18
-49 63 -95 106 -107 40 -11 1421 -12 1459 -2 61 18 129 126 118 186 -8 40 -49
105 -84 131 -26 19 -47 20 -642 25 l-615 5 -5 1645 c-5 1571 -6 1646 -23 1678
-31 54 -82 82 -152 82 -40 0 -69 -6 -87 -18z"/>
<path d="M6730 6452 l-50 -48 0 -70 c0 -74 15 -110 61 -142 54 -38 86 -42 405
-42 227 0 313 -3 322 -12 9 -9 12 -385 12 -1629 0 -889 3 -1631 6 -1648 4 -17
24 -49 46 -70 32 -33 48 -41 91 -46 70 -9 122 10 161 58 l31 39 5 1651 5 1652
325 5 c179 3 336 10 350 14 71 24 118 110 106 194 -8 58 -20 77 -68 112 l-41
30 -859 0 -858 0 -50 -48z"/>
<path d="M4710 2448 c-1 -2 -2 -68 -3 -148 -2 -134 -4 -148 -26 -184 -27 -44
-76 -77 -100 -68 -9 3 -27 14 -40 24 -55 42 -111 0 -111 -83 0 -54 24 -78 58
-60 34 18 116 24 134 9 15 -11 16 -19 7 -52 -6 -21 -14 -59 -19 -85 -8 -45
-18 -79 -47 -151 -7 -19 -14 -53 -16 -75 l-2 -39 75 -24 c41 -14 91 -30 110
-37 98 -35 138 -45 173 -45 42 0 44 8 25 72 -34 115 108 166 216 76 31 -25 36
-35 36 -72 0 -28 -7 -52 -20 -69 -25 -31 -18 -50 25 -77 30 -18 47 -20 162
-18 105 2 128 6 129 18 4 34 36 260 45 325 6 39 15 104 19 145 12 107 29 231
46 330 8 47 14 103 14 126 l0 40 -88 17 c-49 9 -106 17 -128 17 -21 0 -59 5
-84 11 -24 5 -83 14 -130 19 -133 14 -248 30 -335 46 -74 13 -124 18 -125 12z"/>
<path d="M3290 2121 c-6 -13 -10 -184 -10 -486 0 -420 2 -466 16 -472 9 -3 64
0 123 7 58 7 150 15 204 17 93 5 100 4 124 -19 22 -20 24 -29 20 -70 l-6 -47
54 -15 c112 -33 148 -14 135 71 -15 99 9 118 154 119 61 1 116 2 123 3 6 0 15
22 18 49 3 26 12 75 20 109 19 81 20 183 2 183 -8 0 -17 -3 -21 -7 -15 -16
-91 -29 -117 -21 -57 19 -79 128 -38 194 39 64 92 81 150 47 28 -17 30 -17 50
3 14 15 22 39 26 81 7 74 -12 219 -32 250 l-15 23 -485 0 c-469 0 -485 -1
-495 -19z"/>
<path d="M277 1333 c-4 -3 -7 -17 -7 -30 l0 -23 1386 0 1385 0 -3 28 -3 27
-1376 3 c-756 1 -1379 -1 -1382 -5z"/>
<path d="M5844 1325 c-18 -47 -88 -45 1369 -47 750 -2 1371 -2 1379 0 9 2 19
10 22 19 17 44 64 43 -1391 43 -1212 0 -1374 -2 -1379 -15z"/>
<path d="M4729 1286 c-9 -20 -8 -33 10 -68 11 -25 21 -61 21 -82 l0 -38 -97 5
c-54 2 -125 10 -158 16 -33 7 -95 20 -139 29 -75 15 -79 15 -92 -2 -17 -24
-26 -103 -22 -201 l3 -80 65 0 c95 -1 96 -2 120 -40 17 -28 21 -46 17 -83 -7
-70 -27 -134 -50 -159 -21 -23 -67 -32 -67 -12 0 6 -10 9 -22 7 -22 -3 -23 -7
-22 -88 1 -90 12 -260 20 -298 l4 -22 460 0 460 0 -2 458 c-3 451 -3 457 -23
454 -100 -16 -170 -21 -227 -16 -59 5 -71 10 -102 42 -42 41 -43 50 -16 94 26
43 25 54 -5 83 -19 20 -34 25 -75 25 -44 0 -52 -3 -61 -24z"/>
<path d="M4006 1161 c-14 -15 -15 -24 -7 -40 17 -32 13 -79 -11 -111 -21 -29
-24 -30 -105 -30 -129 0 -198 44 -174 111 8 24 7 30 -7 38 -18 9 -301 -2 -364
-14 -21 -4 -42 -13 -48 -20 -7 -8 -9 -161 -8 -466 l3 -454 494 -3 494 -2 -7
42 c-11 71 -23 310 -18 356 6 50 31 67 87 56 47 -8 65 21 65 106 0 82 -8 95
-51 86 -74 -16 -101 -12 -121 15 -26 35 -34 133 -19 236 17 113 17 113 -94
113 -78 0 -95 -3 -109 -19z"/>
</g>
</svg>
