<?xml version="1.0" standalone="no"?>
<!DOCTYPE svg PUBLIC "-//W3C//DTD SVG 20010904//EN"
 "http://www.w3.org/TR/2001/REC-SVG-20010904/DTD/svg10.dtd">
<svg version="1.0" xmlns="http://www.w3.org/2000/svg"
 width="900.000000pt" height="1011.000000pt" viewBox="0 0 900.000000 1011.000000"
 preserveAspectRatio="xMidYMid meet">
<metadata>
Created by potrace 1.10, written by Peter Selinger 2001-2011
</metadata>
<g transform="translate(0.000000,1011.000000) scale(0.100000,-0.100000)"
fill="#000000" stroke="none">
<path d="M20 10098 c-9 -33 -14 -10060 -5 -10069 5 -5 1668 -9 4477 -9 l4468
0 0 5023 c0 2762 -3 5032 -6 5045 l-6 22 -4462 0 c-3562 0 -4463 -3 -4466 -12z
m8795 -180 c3 -13 4 -1278 3 -2813 l-3 -2790 -4324 -3 c-3453 -2 -4326 0
-4333 10 -12 20 -10 5575 2 5599 11 19 70 19 4330 19 l4320 0 5 -22z m-7718
-6015 c56 -37 53 49 53 -1678 0 -1727 3 -1641 -53 -1678 -22 -14 -52 -17 -171
-17 l-145 0 -36 35 -35 36 0 1624 0 1624 35 36 36 35 145 0 c119 0 149 -3 171
-17z m6388 -18 l35 -35 2 -413 3 -412 305 -5 c333 -5 345 -7 375 -64 14 -25
16 -52 13 -143 -3 -120 -13 -144 -68 -165 -15 -6 -146 -9 -316 -9 -246 1 -293
-1 -303 -13 -10 -12 -12 -165 -8 -688 4 -733 6 -756 63 -866 36 -69 79 -107
149 -131 52 -18 83 -21 250 -21 211 0 237 -7 270 -69 22 -44 21 -228 -2 -261
-42 -61 -36 -59 -315 -60 -312 0 -388 14 -533 100 -140 82 -225 209 -288 430
-21 73 -21 95 -25 817 -3 686 -4 744 -20 752 -9 5 -96 9 -192 10 -96 1 -189 6
-205 11 -52 17 -65 53 -65 175 0 184 15 194 285 197 l190 3 5 418 5 419 33 29
32 29 145 0 144 0 36 -35z m-4355 -850 c297 -66 476 -212 593 -485 28 -65 46
-145 57 -248 14 -139 14 -1644 0 -1694 -19 -68 -47 -78 -209 -78 -199 0 -221
18 -221 178 0 49 -3 91 -6 95 -4 3 -29 -19 -56 -49 -85 -93 -259 -194 -398
-231 -30 -8 -113 -21 -185 -30 -188 -21 -373 -3 -520 51 -53 19 -179 87 -225
121 -77 56 -177 172 -212 245 -48 100 -78 214 -78 295 0 54 27 190 46 232 8
17 14 34 14 37 0 9 62 107 85 136 53 65 161 153 236 193 25 13 54 29 64 35 56
31 124 56 341 123 17 5 41 9 53 9 13 0 53 7 90 15 36 8 104 19 151 26 47 6
130 17 185 25 55 8 147 21 205 29 58 8 125 18 150 22 l45 8 3 99 c7 243 -83
401 -268 469 -60 22 -202 47 -272 47 -32 0 -100 -7 -150 -16 -173 -30 -293
-107 -384 -247 -75 -115 -78 -117 -216 -117 -133 0 -167 12 -194 69 -29 61 -2
159 80 289 56 89 192 201 316 262 25 12 53 26 62 31 10 5 23 9 29 9 6 0 25 6
42 14 142 62 532 78 747 31z m2475 1 c28 -9 73 -24 100 -33 114 -37 289 -138
357 -205 105 -106 168 -214 168 -289 0 -35 -6 -56 -19 -70 -38 -41 -68 -49
-185 -49 -126 0 -134 3 -201 80 -82 92 -141 143 -195 166 -30 14 -63 29 -72
34 -25 14 -200 40 -265 40 -72 0 -191 -21 -263 -46 -75 -26 -158 -108 -188
-187 -44 -116 -21 -238 59 -314 34 -32 162 -103 186 -103 7 0 21 -4 31 -9 30
-17 218 -68 347 -96 144 -31 273 -66 332 -91 17 -8 36 -14 42 -14 6 0 19 -4
29 -10 9 -5 40 -19 67 -31 136 -58 277 -187 332 -301 57 -120 58 -123 58 -293
-1 -155 -2 -162 -31 -230 -77 -181 -196 -301 -389 -391 -130 -60 -208 -79
-415 -100 -236 -24 -494 -2 -635 55 -16 6 -43 17 -60 23 -36 14 -147 73 -195
103 -64 41 -169 145 -213 213 -88 131 -98 189 -43 246 l33 36 143 0 143 0 91
-91 c183 -182 317 -239 560 -239 153 0 285 26 381 74 47 24 56 30 99 74 58 58
78 111 78 210 1 103 -13 139 -75 202 -42 42 -189 120 -227 120 -10 0 -21 4
-24 9 -3 5 -23 12 -43 16 -21 3 -58 13 -83 20 -62 19 -110 32 -215 55 -199 45
-362 99 -480 159 -217 111 -345 317 -345 557 0 184 63 327 205 469 97 98 152
132 330 204 96 39 196 50 430 46 160 -2 222 -7 260 -19z"/>
<path d="M2395 9590 c-162 -21 -342 -133 -405 -250 -33 -63 -34 -192 -1 -265
28 -64 91 -128 163 -167 112 -60 178 -140 178 -216 0 -73 -80 -197 -158 -246
-92 -57 -115 -66 -332 -136 -91 -29 -169 -56 -175 -60 -5 -3 -66 -24 -133 -46
l-124 -39 6 -55 c3 -30 10 -113 16 -185 6 -71 15 -157 21 -190 6 -33 12 -136
12 -230 2 -146 -1 -177 -17 -220 -26 -66 -65 -120 -115 -157 -35 -25 -50 -30
-104 -30 -65 0 -107 18 -207 91 -89 66 -183 92 -253 72 -140 -42 -189 -80
-239 -188 -31 -67 -32 -71 -31 -214 0 -158 20 -253 70 -331 12 -21 23 -40 23
-44 0 -8 57 -82 85 -110 58 -59 147 -104 207 -104 43 0 115 36 160 82 24 24
70 82 102 131 92 138 148 177 252 177 109 0 211 -78 275 -211 47 -95 53 -113
84 -234 15 -55 33 -125 41 -155 8 -30 19 -71 23 -90 4 -19 13 -51 19 -70 6
-19 18 -64 27 -100 10 -36 23 -87 31 -115 31 -118 46 -173 59 -220 7 -27 21
-79 30 -115 24 -91 41 -156 59 -220 9 -30 20 -74 26 -96 14 -58 30 -69 72 -51
42 17 73 28 228 78 69 23 134 45 145 49 11 5 69 25 128 45 151 49 213 85 277
159 54 62 71 107 68 172 -5 81 -33 117 -140 183 -163 99 -218 182 -218 328 0
94 26 151 104 228 85 85 201 140 352 169 106 21 155 20 249 -3 152 -38 262
-116 285 -202 12 -43 6 -144 -10 -164 -4 -5 -11 -21 -15 -35 -4 -14 -34 -65
-66 -115 -33 -49 -59 -97 -59 -107 0 -9 -5 -20 -10 -23 -14 -9 -13 -118 2
-152 25 -58 68 -100 135 -133 58 -29 80 -34 163 -38 52 -2 127 1 165 7 168 28
429 69 515 81 36 5 76 12 90 16 14 3 68 13 120 21 52 8 136 21 185 28 50 8
119 19 155 25 36 5 90 14 120 19 156 28 320 46 650 72 69 5 144 14 167 19 58
14 93 13 171 -6 186 -44 281 -146 259 -280 -3 -19 -32 -73 -64 -122 -87 -131
-96 -154 -95 -249 0 -65 5 -92 24 -135 30 -63 85 -120 142 -143 22 -10 52 -22
65 -29 15 -7 84 -11 175 -11 120 0 161 4 201 18 131 47 178 73 256 145 108
100 147 213 102 303 -17 35 -137 159 -154 159 -14 0 -119 79 -152 115 -48 51
-61 84 -61 160 0 53 5 80 21 110 41 75 115 140 201 176 26 11 56 24 67 29 11
5 45 15 75 24 128 35 227 62 340 91 93 25 156 41 225 60 33 10 85 24 115 31
30 8 78 21 105 29 28 7 79 21 115 30 36 10 90 24 120 32 30 8 80 21 110 29 30
8 76 21 101 29 26 8 54 15 62 15 9 0 19 4 22 10 3 5 -44 160 -105 342 -93 276
-119 344 -156 400 -25 37 -59 78 -77 93 -18 14 -37 29 -43 34 -6 5 -35 16 -65
24 -49 15 -60 15 -104 2 -62 -19 -85 -41 -145 -140 -82 -134 -140 -183 -245
-205 -150 -31 -276 27 -368 171 -60 95 -85 160 -112 299 -16 80 -16 90 0 185
30 171 108 294 208 328 40 13 54 14 110 2 62 -13 152 -55 212 -99 70 -52 118
-69 190 -70 112 -1 171 39 221 149 22 49 28 78 32 161 2 55 -1 132 -7 170 -12
69 -34 212 -46 289 -3 22 -13 83 -21 135 -8 52 -22 136 -29 185 -8 50 -19 119
-25 155 -10 62 -22 134 -56 350 -9 52 -17 111 -20 130 -15 111 -14 110 -78 90
-29 -9 -53 -15 -201 -55 -33 -9 -82 -22 -110 -30 -27 -8 -70 -19 -95 -25 -46
-11 -116 -30 -205 -55 -105 -29 -171 -46 -205 -54 -32 -8 -102 -27 -245 -66
-27 -7 -77 -21 -110 -30 -33 -9 -79 -20 -102 -25 -23 -5 -50 -13 -60 -18 -10
-5 -40 -20 -68 -32 -117 -53 -191 -131 -215 -226 -10 -42 -10 -57 4 -103 22
-75 52 -110 153 -177 102 -68 181 -144 206 -196 25 -52 22 -132 -7 -193 -25
-53 -123 -154 -191 -197 -225 -141 -576 -134 -710 14 -66 72 -80 112 -80 223
0 113 10 142 79 235 66 88 76 112 76 178 0 49 -5 66 -29 99 -37 51 -76 79
-149 106 -48 18 -77 21 -192 20 -74 -1 -175 -7 -225 -13 -49 -6 -155 -18 -235
-25 -224 -21 -344 -35 -360 -41 -13 -5 -150 -27 -250 -40 -19 -2 -73 -11 -120
-19 -102 -18 -185 -31 -305 -50 -49 -8 -135 -21 -190 -30 -55 -9 -131 -20
-170 -25 -38 -5 -92 -15 -120 -22 -29 -7 -114 -12 -200 -12 -123 0 -155 3
-180 17 -16 9 -35 17 -42 17 -22 0 -104 90 -123 136 -21 47 -27 148 -11 158 5
3 12 18 15 32 4 15 32 64 62 109 29 46 54 87 54 92 1 4 9 26 20 48 27 55 27
156 0 199 -32 53 -80 89 -182 137 -52 25 -220 35 -333 19z m238 -106 c73 -19
122 -43 161 -79 26 -24 28 -31 24 -83 -4 -48 -14 -72 -61 -149 -102 -167 -128
-249 -107 -342 34 -155 112 -236 285 -298 61 -22 262 -25 370 -6 111 20 247
42 485 79 224 35 289 45 360 54 41 6 82 13 90 16 14 5 129 23 289 45 61 9 76
8 88 -4 10 -10 19 -63 29 -173 7 -88 18 -211 24 -274 18 -189 -3 -303 -75
-401 -70 -97 -192 -117 -292 -48 -157 107 -162 110 -224 119 -148 21 -274 -42
-338 -168 -24 -48 -51 -169 -51 -232 0 -53 24 -185 45 -245 62 -183 227 -341
354 -339 82 1 163 64 247 190 62 94 118 155 164 178 49 24 160 22 212 -5 104
-53 185 -181 234 -369 8 -30 21 -79 29 -108 8 -28 22 -78 30 -110 9 -31 22
-82 31 -112 8 -30 21 -80 28 -110 13 -51 21 -79 62 -230 8 -30 21 -80 30 -110
8 -30 21 -80 28 -110 8 -30 21 -80 29 -110 36 -128 47 -184 40 -191 -9 -9 -90
-25 -220 -45 -95 -15 -208 -32 -380 -60 -54 -8 -114 -17 -133 -20 -19 -2 -73
-11 -120 -19 -132 -23 -209 -35 -475 -76 -95 -15 -241 -7 -285 16 -90 45 -104
117 -43 223 89 152 103 180 120 232 22 67 23 181 3 230 -58 142 -218 240 -440
269 -119 16 -297 -13 -407 -64 -17 -8 -34 -15 -38 -15 -21 0 -150 -98 -199
-150 -106 -115 -140 -246 -101 -398 33 -128 93 -205 214 -276 43 -26 91 -58
106 -72 24 -22 27 -31 22 -70 -7 -68 -86 -140 -202 -184 -33 -12 -68 -26 -77
-31 -10 -5 -25 -9 -34 -9 -9 0 -30 -6 -47 -14 -68 -30 -308 -106 -337 -106
-23 0 -30 5 -30 19 0 10 -7 41 -14 67 -8 27 -22 76 -31 109 -9 33 -22 83 -30
110 -7 28 -21 79 -30 115 -10 36 -24 90 -32 120 -8 30 -22 80 -30 110 -8 30
-21 76 -29 102 -8 26 -14 53 -14 61 0 8 -7 37 -14 63 -8 27 -22 74 -30 104
-74 272 -86 311 -128 398 -48 100 -135 193 -222 237 -53 27 -69 30 -150 30
-78 -1 -99 -5 -146 -28 -70 -33 -126 -89 -197 -195 -66 -98 -135 -162 -176
-162 -33 0 -120 61 -165 115 -66 81 -121 246 -122 368 -1 166 101 297 233 297
42 0 129 -42 171 -82 11 -11 53 -36 93 -54 59 -28 84 -34 139 -34 152 0 269
105 330 295 23 72 26 244 7 400 -7 55 -17 152 -23 215 -6 63 -13 129 -16 147
-7 39 4 46 177 102 68 23 131 45 139 50 9 4 31 12 50 16 19 4 40 10 45 13 19
12 110 41 128 42 35 0 161 77 226 137 43 39 80 85 101 125 32 59 34 69 35 158
0 83 -3 100 -24 135 -39 64 -91 113 -173 161 -104 61 -132 92 -152 168 -16 59
-16 64 1 110 11 26 32 61 48 78 31 33 127 98 144 98 5 0 22 5 38 12 111 46
228 58 326 32z"/>
<path d="M3280 1749 c-92 -14 -277 -40 -355 -50 -44 -5 -96 -14 -115 -19 -19
-6 -49 -10 -66 -10 -39 0 -305 -67 -318 -80 -6 -6 -16 -10 -24 -10 -22 0 -152
-80 -197 -121 -22 -21 -52 -59 -65 -86 -21 -41 -24 -62 -24 -143 1 -140 37
-207 154 -285 105 -70 273 -113 401 -102 88 7 192 26 203 38 6 5 16 9 24 9 40
0 177 84 241 149 133 134 200 332 201 593 0 64 -3 118 -7 120 -5 2 -28 1 -53
-3z"/>
</g>
</svg>
