<?xml version="1.0" standalone="no"?>
<!DOCTYPE svg PUBLIC "-//W3C//DTD SVG 20010904//EN"
 "http://www.w3.org/TR/2001/REC-SVG-20010904/DTD/svg10.dtd">
<svg version="1.0" xmlns="http://www.w3.org/2000/svg"
 width="900.000000pt" height="384.000000pt" viewBox="0 0 900.000000 384.000000"
 preserveAspectRatio="xMidYMid meet">
<metadata>
Created by potrace 1.10, written by Peter Selinger 2001-2011
</metadata>
<g transform="translate(0.000000,384.000000) scale(0.100000,-0.100000)"
fill="#000000" stroke="none">
<path d="M4935 3621 c-119 -11 -205 -30 -370 -83 -33 -10 -71 -23 -85 -29 -14
-6 -38 -17 -55 -24 -374 -157 -716 -484 -889 -850 -21 -44 -42 -88 -47 -98
-18 -35 -77 -224 -92 -297 -35 -161 -42 -231 -42 -390 0 -159 7 -229 42 -390
15 -73 74 -262 92 -297 5 -10 26 -54 47 -98 173 -365 516 -693 889 -850 17 -7
41 -18 55 -24 63 -27 231 -75 340 -98 122 -25 511 -25 625 0 85 19 171 42 220
59 17 5 45 14 64 18 18 5 38 13 44 19 6 6 17 11 24 11 22 0 159 68 256 126
191 116 357 266 491 443 42 55 76 105 76 111 0 5 4 10 8 10 4 0 20 24 35 53
16 28 38 70 50 92 61 111 130 306 160 455 73 363 38 718 -106 1060 -17 41 -42
93 -54 115 -12 22 -34 64 -50 93 -15 28 -31 52 -35 52 -4 0 -8 5 -8 10 0 6
-34 56 -76 111 -134 177 -300 327 -491 443 -95 57 -234 126 -256 126 -6 0 -21
7 -31 15 -11 8 -27 15 -37 15 -9 0 -30 7 -45 15 -16 8 -37 15 -48 15 -10 0
-39 7 -65 15 -107 33 -193 45 -372 49 -101 2 -220 1 -264 -3z m405 -1097 c211
-45 343 -107 446 -209 56 -56 75 -82 92 -131 27 -76 27 -99 -1 -148 -47 -83
-125 -118 -230 -102 -33 5 -56 17 -88 48 -149 138 -225 169 -418 169 -106 0
-134 -4 -171 -21 -88 -39 -120 -85 -120 -170 0 -116 67 -180 250 -240 53 -17
94 -29 225 -66 33 -9 75 -23 93 -30 18 -8 39 -14 47 -14 7 0 26 -6 42 -14 15
-8 60 -29 98 -47 116 -54 229 -152 271 -234 50 -98 58 -136 58 -275 0 -138 -9
-179 -58 -275 -25 -50 -104 -136 -169 -184 -200 -149 -450 -200 -729 -151
-286 51 -446 133 -588 302 -89 106 -90 210 -3 295 55 53 130 73 199 55 43 -12
56 -20 138 -93 107 -93 174 -134 280 -172 51 -18 83 -21 201 -21 130 0 144 2
196 26 70 33 104 73 113 132 14 94 -10 154 -85 212 -44 33 -180 82 -444 159
-53 16 -97 31 -160 55 -65 25 -166 79 -215 116 -62 46 -136 136 -163 199 -77
182 -56 401 54 550 99 134 247 226 444 275 94 24 294 26 395 4z"/>
<path d="M571 3266 c-51 -16 -117 -86 -132 -137 -14 -53 -20 -2384 -5 -2488 8
-58 13 -67 61 -116 46 -45 60 -54 103 -60 105 -14 194 21 240 97 11 18 25 60
31 92 16 85 15 2344 0 2435 -25 146 -156 223 -298 177z"/>
<path d="M7670 2913 c-46 -30 -82 -68 -101 -105 -16 -31 -19 -59 -19 -180 0
-79 -4 -149 -9 -157 -7 -10 -27 -14 -69 -13 -106 3 -199 -14 -236 -42 -48 -36
-76 -95 -76 -162 0 -69 25 -121 81 -165 41 -32 44 -33 158 -37 64 -2 124 -9
134 -14 16 -8 17 -47 17 -596 0 -546 1 -592 19 -652 22 -76 33 -98 84 -167 50
-68 95 -98 202 -135 50 -18 85 -21 215 -22 l155 -1 76 38 c131 65 166 118 156
229 -6 67 -24 100 -70 129 -35 22 -77 21 -174 -1 -73 -17 -133 -6 -172 32 -17
17 -34 40 -36 52 -3 11 -4 264 -3 561 l3 540 175 5 176 5 43 34 c119 94 105
261 -28 343 -30 19 -51 22 -195 24 -89 2 -164 3 -168 3 -5 1 -8 62 -8 136 0
188 -32 270 -121 316 -50 25 -173 27 -209 2z"/>
<path d="M1950 2529 c-127 -18 -183 -34 -280 -78 -219 -100 -410 -327 -493
-586 -44 -140 -50 -186 -50 -390 0 -208 6 -254 54 -399 131 -392 481 -656 869
-656 192 0 394 80 553 220 49 43 49 43 62 -13 10 -46 52 -105 97 -134 37 -25
51 -28 123 -28 80 0 83 1 130 39 29 24 57 59 71 90 l24 51 0 847 c0 834 0 848
-21 900 -25 64 -75 110 -141 132 -62 20 -76 20 -135 0 -80 -27 -153 -117 -153
-188 0 -33 -17 -33 -55 0 -104 91 -264 160 -434 188 -101 17 -135 18 -221 5z
m329 -433 c168 -55 290 -185 367 -391 16 -42 19 -78 19 -225 0 -157 -3 -182
-24 -240 -43 -121 -80 -180 -167 -265 -156 -154 -405 -187 -614 -82 -100 51
-216 185 -258 297 -67 182 -69 407 -5 557 7 17 13 33 13 36 0 3 16 33 36 67
69 118 190 215 314 251 88 26 230 24 319 -5z"/>
</g>
</svg>
