<?xml version="1.0" standalone="no"?>
<!DOCTYPE svg PUBLIC "-//W3C//DTD SVG 20010904//EN"
 "http://www.w3.org/TR/2001/REC-SVG-20010904/DTD/svg10.dtd">
<svg version="1.0" xmlns="http://www.w3.org/2000/svg"
 width="4281.000000pt" height="1434.000000pt" viewBox="0 0 4281.000000 1434.000000"
 preserveAspectRatio="xMidYMid meet">
<metadata>
Created by potrace 1.10, written by Peter Selinger 2001-2011
</metadata>
<g transform="translate(0.000000,1434.000000) scale(0.100000,-0.100000)"
fill="#000000" stroke="none">
<path d="M0 12595 l0 -1745 6740 0 6740 0 0 1723 c0 947 -3 1732 -6 1745 l-6
22 -6734 0 -6734 0 0 -1745z m3498 -12 l-3 -1538 -1647 -3 -1648 -2 0 1540 0
1540 1650 0 1650 0 -2 -1537z m6542 -3 l0 -1540 -1632 2 -1633 3 -3 1538 -2
1537 1635 0 1635 0 0 -1540z m-4641 1347 c12 -24 21 -48 21 -54 0 -6 6 -24 14
-40 14 -26 57 -132 93 -228 9 -22 21 -53 28 -70 7 -16 21 -50 30 -75 9 -25 23
-58 30 -75 7 -16 20 -50 30 -75 9 -25 23 -58 30 -75 7 -16 20 -50 30 -75 9
-25 23 -58 30 -75 7 -16 20 -50 30 -75 9 -25 23 -58 30 -75 7 -16 19 -48 28
-70 8 -22 29 -76 47 -120 18 -44 39 -98 47 -120 9 -22 21 -53 28 -70 7 -16 21
-50 30 -75 10 -25 23 -58 30 -75 7 -16 21 -50 30 -75 9 -25 23 -58 30 -75 7
-16 19 -48 28 -70 8 -22 29 -76 47 -120 18 -44 39 -98 47 -120 9 -22 21 -53
28 -70 15 -35 70 -172 92 -230 9 -22 21 -53 28 -70 7 -16 21 -50 30 -75 9 -25
23 -58 30 -75 7 -16 20 -50 30 -75 9 -25 24 -59 32 -76 8 -17 13 -41 11 -54
l-3 -22 -236 1 c-130 0 -243 3 -250 6 -8 3 -22 27 -32 53 -10 26 -24 61 -31
77 -8 17 -20 48 -29 70 -8 22 -29 76 -47 120 -18 44 -39 98 -47 120 -9 22 -21
54 -28 70 -7 17 -21 49 -31 73 l-17 42 -580 -2 -579 -3 -18 -35 c-10 -19 -26
-55 -35 -80 -38 -100 -48 -126 -60 -155 -7 -16 -20 -48 -28 -70 -36 -98 -59
-156 -96 -237 l-20 -47 -241 -3 c-132 -2 -245 -2 -250 0 -14 5 -12 36 4 74 8
18 28 68 45 111 17 42 45 112 62 155 17 42 38 95 46 117 9 22 21 54 28 70 7
17 21 50 30 75 10 25 23 59 30 75 7 17 21 50 30 75 10 25 23 59 30 75 7 17 21
50 30 75 10 25 23 59 30 75 7 17 21 50 30 75 10 25 23 59 30 75 15 35 70 172
92 230 9 22 21 54 28 70 7 17 21 50 30 75 10 25 23 59 30 75 7 17 21 50 30 75
10 25 23 59 30 75 7 17 21 50 30 75 10 25 23 59 30 75 7 17 21 50 30 75 10 25
23 59 30 75 7 17 21 50 30 75 9 25 23 59 30 75 7 17 20 50 30 75 9 25 23 59
30 75 7 17 20 50 30 75 10 25 23 59 30 75 7 17 21 50 30 75 10 25 23 59 30 75
7 17 21 50 31 75 10 25 22 51 27 58 7 9 69 12 247 12 l238 0 21 -43z m7366
-167 l0 -205 -415 -5 -415 -5 -3 -1165 c-1 -640 -6 -1168 -10 -1172 -11 -11
-473 -11 -483 -1 -6 6 -9 509 -9 1164 0 635 -4 1160 -8 1166 -6 10 -104 13
-413 15 l-404 3 -3 195 c-1 107 0 200 2 207 4 11 213 13 1083 11 l1078 -3 0
-205z"/>
<path d="M955 13958 c-3 -7 -4 -629 -3 -1383 l3 -1370 899 -3 c656 -1 902 1
912 9 11 9 14 52 14 189 0 98 -3 185 -6 194 -6 14 -72 16 -653 16 -490 0 -650
3 -659 12 -9 9 -12 284 -12 1174 0 1050 -2 1162 -16 1168 -9 3 -119 6 -245 6
-175 0 -231 -3 -234 -12z"/>
<path d="M8215 14011 c-275 -49 -479 -164 -615 -346 -69 -93 -95 -159 -118
-295 -23 -144 1 -313 64 -440 68 -137 209 -270 393 -372 105 -58 233 -117 351
-163 25 -10 60 -24 78 -31 17 -8 47 -20 65 -28 107 -45 232 -114 275 -152 64
-56 96 -112 112 -195 15 -76 3 -163 -32 -230 -47 -91 -161 -166 -298 -196
-154 -34 -500 -8 -700 51 -25 8 -72 22 -105 31 -58 17 -97 32 -161 62 -18 8
-40 13 -50 11 -18 -3 -19 -17 -22 -205 l-2 -201 32 -19 c18 -11 60 -28 93 -38
33 -10 76 -23 95 -30 33 -12 110 -28 265 -56 98 -17 632 -24 699 -8 28 6 71
15 96 20 83 14 153 38 249 86 82 40 109 60 186 137 116 117 164 212 194 382
35 195 -23 454 -131 579 -67 79 -197 188 -276 233 -34 19 -222 112 -262 130
-19 8 -42 18 -51 22 -8 5 -76 34 -149 65 -73 31 -141 61 -149 65 -9 4 -34 16
-56 26 -156 74 -220 134 -267 254 -57 145 29 329 187 398 107 47 155 55 342
55 133 -1 201 -5 255 -18 140 -32 268 -72 354 -110 31 -14 60 -22 65 -19 10 6
13 373 3 398 -3 9 -14 16 -24 16 -11 0 -21 4 -24 9 -3 5 -18 12 -33 15 -16 4
-41 13 -58 21 -28 12 -68 24 -212 59 -177 43 -494 56 -658 27z"/>
<path d="M5111 13354 c-12 -26 -21 -50 -21 -55 0 -5 -6 -23 -14 -41 -8 -18
-21 -51 -29 -73 -24 -64 -49 -128 -62 -160 -13 -31 -37 -92 -60 -155 -7 -19
-20 -54 -29 -77 -9 -24 -22 -60 -30 -80 -8 -21 -20 -56 -29 -78 -8 -22 -21
-58 -30 -80 -8 -22 -21 -58 -30 -80 -38 -101 -50 -132 -64 -158 -31 -59 -44
-57 427 -57 371 0 430 2 430 15 0 14 -20 65 -46 118 -8 16 -14 35 -14 42 0 7
-6 26 -14 42 -8 15 -22 47 -30 71 -22 58 -43 114 -62 165 -9 23 -22 59 -30 80
-8 20 -20 54 -28 75 -8 20 -22 57 -31 82 -9 25 -24 63 -32 85 -8 22 -21 53
-29 68 -8 16 -14 36 -14 46 0 9 -7 26 -15 37 -8 10 -15 27 -15 37 0 11 -6 31
-14 45 -8 15 -22 49 -32 75 -9 26 -21 50 -25 53 -4 2 -17 -16 -28 -42z"/>
<path d="M7330 10341 c-128 -27 -205 -205 -153 -357 42 -125 129 -179 257
-160 64 10 128 73 150 149 53 183 -27 354 -174 370 -25 3 -61 2 -80 -2z m133
-77 c38 -29 56 -66 63 -132 11 -103 -2 -164 -44 -210 -47 -51 -96 -62 -152
-37 -22 10 -48 30 -57 44 -75 110 -45 309 52 352 31 14 109 4 138 -17z"/>
<path d="M5885 10331 c-4 -8 -9 -370 -5 -492 0 -6 12 -9 28 -7 l27 3 5 115 5
115 115 0 115 0 5 -115 5 -115 30 0 30 0 3 247 2 248 -24 6 c-14 3 -30 3 -35
-1 -7 -3 -11 -45 -11 -100 0 -57 -4 -96 -11 -101 -9 -5 -112 -8 -206 -5 -21 1
-22 5 -25 104 -3 96 -4 102 -25 105 -11 2 -24 -2 -28 -7z"/>
<path d="M6397 10334 c-4 -4 -7 -119 -7 -256 l0 -248 144 0 c80 0 147 4 150 9
4 5 3 16 0 25 -5 13 -24 16 -108 16 -66 0 -106 4 -114 12 -7 7 -12 42 -12 89
0 91 -2 89 111 89 62 0 81 3 85 15 13 33 -15 46 -98 44 -44 -2 -83 2 -89 8 -5
5 -9 39 -7 74 l3 64 110 5 c109 5 110 5 110 30 l0 25 -136 3 c-74 1 -138 -1
-142 -4z"/>
<path d="M6770 10322 c0 -10 6 -26 14 -37 7 -11 27 -45 44 -75 16 -30 38 -69
48 -87 20 -35 22 -28 -44 -143 -43 -74 -72 -130 -72 -140 0 -5 13 -10 29 -10
25 0 32 8 70 83 53 102 68 124 80 111 5 -5 23 -36 41 -69 60 -111 71 -125 94
-125 13 0 25 3 29 6 5 5 -22 63 -53 114 -65 104 -84 160 -61 174 5 3 21 29 36
58 40 77 49 91 64 110 17 22 8 48 -18 48 -22 0 -41 -25 -91 -122 -19 -38 -39
-68 -45 -68 -6 0 -26 30 -45 68 -50 99 -68 122 -96 122 -16 0 -24 -6 -24 -18z"/>
<path d="M540 10112 c-6 -2 -10 -17 -10 -33 l0 -29 2573 2 2572 3 0 25 0 25
-2563 5 c-1409 3 -2567 4 -2572 2z"/>
<path d="M10365 10110 l-2560 -5 0 -25 0 -25 2573 -3 2572 -2 0 29 c0 16 -6
30 -12 32 -7 2 -1165 2 -2573 -1z"/>
</g>
</svg>
