<?xml version="1.0" standalone="no"?>
<!DOCTYPE svg PUBLIC "-//W3C//DTD SVG 20010904//EN"
 "http://www.w3.org/TR/2001/REC-SVG-20010904/DTD/svg10.dtd">
<svg version="1.0" xmlns="http://www.w3.org/2000/svg"
 width="5289.000000pt" height="1785.000000pt" viewBox="0 0 5289.000000 1785.000000"
 preserveAspectRatio="xMidYMid meet">
<metadata>
Created by potrace 1.10, written by Peter Selinger 2001-2011
</metadata>
<g transform="translate(0.000000,1785.000000) scale(0.100000,-0.100000)"
fill="#000000" stroke="none">
<path d="M3705 17534 c-39 -6 -113 -33 -145 -53 -80 -49 -200 -204 -200 -258
0 -8 -16 -49 -35 -91 -39 -81 -131 -183 -195 -214 -105 -50 -112 -52 -235 -52
-117 0 -155 8 -215 45 -8 5 -22 12 -30 16 -33 14 -106 81 -332 306 -242 240
-251 247 -319 239 -18 -2 -98 -76 -281 -260 -140 -141 -267 -276 -281 -299
-23 -36 -27 -54 -27 -115 1 -63 4 -78 28 -113 29 -41 96 -94 121 -95 33 0 140
-63 183 -107 71 -71 86 -91 114 -150 63 -134 56 -289 -19 -442 -23 -46 -132
-149 -192 -182 -78 -42 -122 -52 -220 -52 -139 0 -234 36 -330 127 -53 50
-125 170 -125 208 0 21 -39 86 -66 110 -29 25 -92 48 -131 48 -20 0 -58 -8
-87 -17 -45 -16 -81 -47 -308 -273 l-258 -255 0 -49 0 -48 1002 -1004 1002
-1004 54 0 54 0 246 246 c136 136 264 258 285 272 34 23 50 26 123 26 77 0 87
-2 126 -30 45 -32 108 -117 108 -147 0 -9 4 -25 10 -35 5 -9 17 -35 27 -57 21
-47 115 -143 164 -167 106 -52 112 -53 224 -53 112 0 133 5 233 54 75 36 169
154 203 253 24 70 25 205 1 273 -51 147 -130 230 -277 290 -110 45 -151 81
-186 162 -30 71 -22 141 24 218 10 17 137 149 283 295 l264 265 0 49 0 48
-223 227 c-276 280 -301 322 -300 501 0 131 19 185 102 297 52 70 181 163 226
163 14 0 46 13 125 49 81 37 165 140 202 246 23 66 24 227 2 281 -53 131 -127
219 -219 262 -28 13 -58 27 -67 32 -20 11 -189 21 -233 14z"/>
<path d="M5105 17054 c-16 -3 -44 -12 -62 -20 -17 -7 -36 -14 -43 -14 -18 0
-125 -86 -146 -117 -26 -39 -54 -95 -54 -108 0 -5 -8 -23 -17 -40 -16 -27 -18
-81 -20 -540 -2 -280 1 -802 6 -1160 9 -657 13 -711 49 -798 7 -16 12 -33 12
-39 0 -29 90 -125 145 -156 76 -41 127 -51 260 -51 172 0 248 25 334 110 84
84 125 200 142 404 14 161 7 2238 -7 2256 -6 8 -14 28 -18 44 -10 44 -38 96
-66 123 -32 31 -96 72 -112 72 -7 0 -26 7 -43 16 -22 12 -68 17 -180 19 -82 2
-163 1 -180 -1z"/>
<path d="M12275 16868 c-81 -6 -166 -25 -218 -46 -16 -7 -32 -12 -37 -12 -5 0
-23 -8 -42 -17 -18 -9 -44 -22 -58 -29 -93 -45 -102 -51 -172 -115 -36 -32
-67 -71 -83 -104 -24 -52 -25 -60 -25 -272 0 -120 -3 -228 -6 -240 -5 -18 -16
-22 -66 -28 -33 -4 -72 -13 -86 -21 -15 -8 -30 -14 -34 -14 -15 0 -61 -45 -86
-85 -24 -36 -26 -49 -26 -141 0 -98 1 -102 32 -141 39 -50 118 -90 194 -98 32
-4 61 -12 65 -18 5 -7 11 -190 14 -407 6 -393 11 -456 49 -600 36 -136 121
-272 212 -337 49 -36 116 -73 129 -73 4 0 20 -5 36 -12 77 -32 151 -41 343
-42 133 0 209 4 240 13 52 15 169 70 188 89 7 6 18 12 23 12 18 0 152 136 187
190 36 56 102 179 102 192 0 4 5 19 12 35 25 61 41 142 45 238 4 97 3 101 -22
128 -41 43 -97 67 -159 67 -52 0 -56 -2 -88 -42 -18 -24 -44 -65 -58 -91 -14
-27 -40 -62 -58 -78 -29 -25 -40 -29 -96 -29 -54 0 -66 3 -86 25 -36 38 -42
96 -47 409 -4 252 -2 290 12 306 13 14 41 18 186 23 93 3 176 10 182 15 7 5
26 12 42 16 110 27 164 167 118 309 -23 73 -48 102 -110 132 -47 22 -76 27
-231 37 -97 6 -182 15 -188 20 -8 6 -13 113 -17 346 -4 294 -7 343 -23 382
-41 104 -96 124 -289 108z"/>
<path d="M6875 16149 c-97 -8 -163 -25 -234 -62 -101 -52 -190 -130 -278 -242
-31 -40 -123 -211 -123 -228 0 -5 -6 -23 -14 -40 -50 -118 -71 -273 -70 -527
0 -251 20 -399 70 -515 7 -16 20 -46 28 -67 9 -20 16 -38 16 -42 0 -22 101
-163 170 -236 32 -34 128 -110 155 -121 11 -5 27 -13 35 -18 31 -17 86 -40
130 -52 59 -17 364 -18 445 -1 153 32 289 83 371 138 46 32 72 26 109 -21 15
-20 37 -40 48 -46 12 -5 29 -13 37 -18 8 -5 38 -17 67 -25 74 -23 344 -22 416
0 86 27 134 53 170 94 97 107 107 192 107 935 0 499 -2 607 -17 700 -31 209
-98 290 -290 349 -58 18 -327 23 -338 7 -3 -5 -20 -13 -37 -17 -57 -12 -134
-73 -184 -145 -15 -21 -31 -39 -36 -39 -5 0 -35 19 -66 43 -70 51 -79 57 -167
100 -171 84 -319 112 -520 96z m584 -545 c51 -25 121 -102 121 -133 1 -14 1
-207 1 -429 0 -383 -1 -404 -20 -430 -43 -61 -106 -99 -177 -109 -50 -7 -122
25 -161 71 -27 32 -73 126 -73 148 0 8 -4 18 -9 23 -12 12 -28 99 -41 218 -9
85 -3 191 19 317 31 172 122 317 216 343 30 8 87 -1 124 -19z"/>
<path d="M9855 16150 c-108 -7 -240 -27 -266 -40 -9 -5 -34 -12 -55 -16 -22
-3 -43 -10 -49 -14 -5 -4 -21 -11 -35 -15 -42 -12 -187 -86 -216 -110 -7 -5
-27 -21 -45 -35 -55 -42 -112 -103 -152 -162 -20 -31 -37 -60 -37 -65 0 -4 -6
-20 -14 -34 -7 -15 -19 -65 -26 -113 -11 -70 -11 -105 0 -188 7 -57 16 -110
21 -118 4 -8 18 -37 31 -64 39 -83 143 -176 248 -221 25 -10 52 -24 60 -29 47
-34 212 -99 283 -112 20 -3 40 -10 43 -15 3 -5 16 -9 28 -9 23 0 77 -14 177
-45 26 -8 55 -15 65 -15 11 0 32 -7 48 -15 15 -8 34 -15 42 -15 15 0 85 -46
96 -63 14 -22 8 -82 -12 -105 -40 -48 -94 -62 -240 -61 -92 0 -148 4 -175 14
-22 8 -46 15 -53 15 -8 0 -30 7 -50 16 -21 8 -52 22 -70 29 -18 8 -47 21 -65
29 -17 8 -48 21 -67 29 -19 8 -55 23 -80 33 -34 14 -69 19 -145 19 -89 0 -104
-3 -133 -24 -36 -25 -72 -96 -72 -139 1 -33 33 -129 49 -145 6 -6 11 -16 11
-22 0 -16 126 -136 175 -167 58 -36 156 -88 167 -88 6 0 24 -6 41 -14 134 -59
460 -93 725 -76 131 9 270 29 302 43 8 4 35 11 60 16 59 12 140 41 205 74 85
43 119 65 182 117 72 60 144 147 175 210 53 112 53 110 52 245 0 140 -8 173
-66 290 -57 115 -214 234 -423 320 -65 27 -108 46 -138 61 -16 8 -33 14 -39
14 -5 0 -24 6 -41 13 -52 22 -133 47 -153 47 -11 0 -32 7 -48 15 -15 8 -34 15
-42 15 -13 0 -42 11 -134 53 -80 36 -117 88 -111 156 7 78 131 126 261 102 96
-17 148 -30 167 -39 10 -5 50 -24 88 -43 39 -18 86 -45 105 -59 55 -42 188
-119 215 -126 14 -3 28 -10 31 -15 9 -15 93 -10 127 7 18 9 43 28 57 42 23 22
25 32 25 106 -1 75 -3 85 -36 136 -38 58 -75 99 -128 140 -18 14 -38 30 -44
36 -7 5 -19 13 -27 17 -8 4 -28 16 -45 27 -31 21 -33 22 -105 52 -25 11 -54
23 -65 28 -11 5 -36 12 -55 16 -19 3 -39 10 -45 14 -5 4 -35 10 -65 14 -30 4
-68 11 -85 16 -42 12 -290 18 -410 10z"/>
</g>
</svg>
