<?xml version="1.0" standalone="no"?>
<!DOCTYPE svg PUBLIC "-//W3C//DTD SVG 20010904//EN"
 "http://www.w3.org/TR/2001/REC-SVG-20010904/DTD/svg10.dtd">
<svg version="1.0" xmlns="http://www.w3.org/2000/svg"
 width="900.000000pt" height="243.000000pt" viewBox="0 0 900.000000 243.000000"
 preserveAspectRatio="xMidYMid meet">
<metadata>
Created by potrace 1.10, written by Peter Selinger 2001-2011
</metadata>
<g transform="translate(0.000000,243.000000) scale(0.100000,-0.100000)"
fill="#000000" stroke="none">
<path d="M0 1215 l0 -1215 4500 0 4500 0 0 1215 0 1215 -4500 0 -4500 0 0
-1215z m6695 -10 l0 -1120 -3307 -3 -3308 -2 0 1125 0 1125 3308 -2 3307 -3 0
-1120z m1031 901 c10 -15 14 -52 14 -140 l0 -119 55 -58 c44 -46 55 -64 55
-91 0 -35 -21 -74 -52 -96 -54 -39 -58 -50 -58 -160 0 -98 -9 -137 -34 -154
-6 -4 -59 -8 -118 -8 l-107 0 -37 44 c-20 24 -53 52 -73 61 -49 21 -79 9 -142
-55 l-48 -50 -120 0 c-174 0 -161 -30 -161 355 0 212 4 323 12 346 24 72 83
127 148 140 19 4 174 6 343 6 293 -2 309 -3 323 -21z m914 -281 c43 -27 70
-62 93 -123 14 -35 17 -82 17 -285 0 -176 -3 -246 -12 -255 -8 -8 -55 -12
-143 -12 l-132 0 -57 -55 c-49 -48 -62 -55 -96 -55 -35 0 -47 7 -95 55 l-54
55 -89 0 c-108 0 -116 6 -110 85 4 50 8 58 51 96 44 38 47 44 47 88 0 44 -4
52 -50 99 l-50 51 0 124 c0 128 7 152 44 159 11 1 149 2 308 0 286 -3 290 -3
328 -27z m-991 -689 c15 -8 42 -32 60 -53 28 -33 39 -39 84 -43 l52 -5 3 -62
c3 -60 2 -62 -40 -106 -42 -43 -68 -104 -68 -161 0 -45 31 -111 71 -152 l40
-40 -3 -115 -3 -114 -225 -3 c-306 -4 -319 -2 -378 57 -29 29 -53 64 -60 88
-8 27 -12 127 -12 302 0 224 2 265 16 286 16 24 19 25 149 25 l133 0 27 36
c30 40 80 74 108 74 10 0 30 -6 46 -14z m502 -135 c38 -39 109 -71 160 -71 46
0 110 29 155 70 l44 40 114 0 c95 0 115 -3 120 -16 3 -9 6 -134 6 -279 0 -218
-3 -271 -17 -314 -20 -64 -80 -127 -133 -141 -23 -6 -156 -9 -337 -8 l-298 3
-5 142 -5 142 -52 51 c-47 46 -53 57 -53 92 0 35 7 47 46 86 61 62 64 69 64
155 0 40 3 77 7 80 3 4 38 7 77 7 69 0 72 -1 107 -39z"/>
<path d="M3910 2155 c-112 -18 -213 -52 -300 -101 -67 -38 -179 -155 -207
-215 -49 -105 -53 -125 -53 -263 0 -144 16 -211 74 -310 55 -95 207 -196 336
-226 19 -4 55 -12 80 -18 91 -22 202 -42 235 -42 39 0 176 -32 220 -51 60 -26
75 -47 75 -109 0 -48 -4 -60 -27 -82 -45 -42 -110 -58 -232 -58 -136 0 -201
21 -267 88 -24 25 -44 51 -44 58 0 17 -58 64 -79 64 -10 0 -49 -12 -87 -26
-38 -14 -82 -29 -99 -34 -16 -4 -43 -13 -60 -20 -109 -45 -124 -54 -141 -86
-17 -31 -17 -35 -1 -69 9 -20 17 -40 17 -45 0 -19 64 -116 104 -158 41 -43
165 -132 184 -132 6 0 23 -6 39 -14 45 -23 130 -44 248 -62 162 -25 335 -12
505 36 81 24 134 43 151 55 8 6 32 19 54 30 22 11 72 52 110 90 136 135 182
299 146 511 -20 113 -58 189 -136 268 -73 74 -207 144 -320 166 -174 35 -325
60 -356 60 -29 0 -132 35 -164 56 -73 47 -55 155 31 194 62 27 253 29 311 3
42 -19 113 -81 113 -98 0 -20 70 -85 90 -85 19 0 41 8 110 38 19 8 49 21 65
28 120 49 193 85 207 101 16 20 14 99 -3 120 -15 17 -34 49 -48 79 -18 40
-158 159 -224 192 -37 17 -74 32 -82 32 -9 0 -25 5 -36 11 -65 34 -384 49
-539 24z"/>
<path d="M284 2121 c-11 -5 -28 -25 -37 -44 -15 -32 -17 -113 -17 -871 0 -941
-3 -903 69 -925 50 -15 1069 -16 1123 -1 64 18 68 33 68 226 l0 172 -31 26
-31 26 -322 0 c-242 0 -326 3 -339 13 -15 11 -17 68 -19 679 -3 625 -4 668
-21 685 -16 16 -41 18 -220 20 -111 1 -211 -2 -223 -6z"/>
<path d="M2200 2121 c-28 -8 -65 -57 -79 -105 -5 -17 -19 -56 -31 -86 -12 -30
-26 -68 -30 -85 -9 -30 -19 -59 -60 -165 -12 -30 -25 -68 -30 -85 -5 -16 -18
-55 -30 -85 -40 -105 -51 -135 -60 -165 -9 -30 -19 -57 -60 -165 -12 -30 -26
-71 -32 -90 -5 -19 -14 -39 -18 -45 -4 -5 -10 -21 -13 -35 -3 -14 -15 -50 -26
-80 -40 -102 -52 -135 -61 -165 -4 -16 -18 -55 -30 -85 -41 -106 -51 -135 -60
-165 -4 -16 -20 -61 -34 -99 -51 -135 -36 -146 197 -146 196 0 260 12 290 54
22 31 41 75 57 131 4 17 15 48 23 70 l14 40 277 3 276 2 19 -42 c10 -24 29
-75 41 -115 12 -40 32 -83 44 -96 34 -36 129 -50 322 -45 142 3 165 5 183 22
26 24 26 47 0 116 -11 30 -24 69 -29 85 -5 17 -18 55 -30 85 -12 30 -25 66
-30 80 -5 14 -18 50 -30 80 -12 30 -25 69 -30 85 -5 17 -18 55 -30 85 -41 106
-51 135 -60 165 -4 17 -18 55 -30 85 -45 118 -52 136 -57 160 -3 14 -9 30 -13
35 -4 6 -13 26 -18 45 -6 19 -20 60 -32 90 -41 108 -51 135 -60 165 -9 30 -20
60 -60 165 -12 30 -25 69 -30 85 -7 27 -26 76 -58 155 -5 14 -20 34 -32 45
-20 18 -38 20 -229 22 -113 1 -217 -2 -231 -6z m220 -523 c0 -48 26 -202 44
-268 31 -108 49 -167 61 -200 30 -87 43 -134 39 -142 -8 -12 -302 -10 -309 2
-6 10 2 40 30 120 7 19 20 62 30 95 10 33 23 80 31 105 20 70 44 219 44 276 0
28 3 54 6 57 14 14 24 -6 24 -45z"/>
<path d="M5032 2120 c-12 -5 -27 -21 -32 -35 -10 -28 -14 -325 -4 -361 3 -11
18 -28 34 -37 24 -14 60 -17 239 -17 l211 0 0 -661 c0 -599 2 -664 17 -689 25
-43 74 -52 269 -48 196 4 217 10 227 75 4 21 7 327 7 681 l0 642 216 0 216 0
34 34 34 34 0 165 c0 161 -1 167 -24 194 l-24 28 -699 2 c-407 1 -707 -2 -721
-7z"/>
</g>
</svg>
