<?xml version="1.0" standalone="no"?>
<!DOCTYPE svg PUBLIC "-//W3C//DTD SVG 20010904//EN"
 "http://www.w3.org/TR/2001/REC-SVG-20010904/DTD/svg10.dtd">
<svg version="1.0" xmlns="http://www.w3.org/2000/svg"
 width="900.000000pt" height="222.000000pt" viewBox="0 0 900.000000 222.000000"
 preserveAspectRatio="xMidYMid meet">
<metadata>
Created by potrace 1.10, written by Peter Selinger 2001-2011
</metadata>
<g transform="translate(0.000000,222.000000) scale(0.100000,-0.100000)"
fill="#000000" stroke="none">
<path d="M0 1110 l0 -1110 1105 0 1105 0 0 1110 0 1110 -1105 0 -1105 0 0
-1110z m2122 998 c3 -11 2 -1996 -1 -2020 -1 -5 -460 -8 -1021 -8 l-1020 0 0
1020 0 1020 1019 0 c806 0 1020 -3 1023 -12z"/>
<path d="M592 2002 c-10 -7 -12 -194 -10 -903 l3 -894 500 -3 c275 -1 510 0
523 3 19 5 22 12 22 50 0 34 -5 47 -20 55 -13 7 -149 10 -395 10 -206 -1 -380
2 -385 5 -7 4 -10 296 -10 836 0 456 -2 834 -5 839 -7 12 -205 13 -223 2z"/>
<path d="M2256 2189 c-8 -41 -8 -2152 0 -2173 6 -14 113 -16 1110 -16 l1104 0
0 1088 c0 598 -3 1097 -6 1110 l-6 22 -1098 0 -1097 0 -7 -31z m2129 -1089 l0
-1015 -1025 0 -1025 0 -3 1005 c-1 553 0 1011 3 1018 3 10 214 12 1027 10
l1023 -3 0 -1015z"/>
<path d="M3218 1999 c-10 -5 -18 -19 -18 -30 0 -11 -5 -30 -12 -42 -6 -12 -15
-35 -19 -52 -4 -16 -13 -46 -20 -65 -6 -19 -17 -51 -24 -70 -7 -19 -18 -51
-24 -70 -7 -19 -16 -48 -21 -65 -8 -29 -17 -57 -45 -135 -7 -19 -41 -123 -75
-230 -35 -107 -68 -211 -75 -230 -7 -19 -18 -51 -24 -70 -7 -19 -16 -48 -21
-65 -5 -16 -14 -46 -21 -65 -6 -19 -17 -51 -24 -70 -7 -19 -18 -51 -24 -70 -7
-19 -16 -48 -21 -65 -5 -16 -14 -46 -21 -65 -6 -19 -17 -51 -24 -70 -7 -19
-18 -51 -24 -70 -7 -19 -17 -48 -21 -65 -5 -16 -16 -49 -24 -73 -9 -24 -14
-48 -11 -53 4 -5 31 -9 61 -9 43 0 56 4 60 18 3 9 12 33 19 52 7 19 27 82 45
140 17 58 38 120 46 138 8 18 14 41 14 51 0 10 9 30 21 45 l20 26 383 0 c408
0 409 0 419 -50 3 -14 11 -41 17 -60 7 -19 18 -51 25 -70 7 -19 18 -51 24 -70
7 -19 16 -48 21 -65 12 -43 31 -96 44 -125 11 -24 15 -25 129 -28 96 -2 118 0
123 12 5 13 -26 119 -71 246 -30 86 -37 107 -45 135 -9 33 -27 85 -43 125 -5
14 -13 39 -17 55 -5 17 -14 46 -21 65 -6 19 -17 51 -24 70 -7 19 -18 51 -24
70 -7 19 -16 49 -21 65 -8 28 -16 54 -45 135 -7 19 -41 123 -75 230 -34 107
-68 211 -75 230 -26 74 -37 106 -45 135 -11 39 -29 91 -46 133 -8 18 -14 41
-14 52 0 43 -23 50 -163 50 -73 0 -140 -5 -149 -11z m100 -185 c2 -10 9 -35
16 -54 22 -60 37 -104 46 -135 8 -29 18 -59 45 -135 7 -19 48 -143 90 -275 42
-132 83 -256 90 -275 6 -19 18 -51 25 -70 7 -19 13 -48 14 -65 l1 -30 -320 -3
c-176 -2 -335 0 -354 3 -36 7 -35 4 -13 85 6 19 16 51 23 70 6 19 17 51 24 70
7 19 18 51 24 70 7 19 16 49 21 65 5 17 14 46 21 65 6 19 17 51 24 70 7 19 18
51 24 70 7 19 16 49 21 65 5 17 14 46 21 65 6 19 17 51 24 70 7 19 18 51 24
70 7 19 16 49 21 65 36 133 79 199 88 139z"/>
<path d="M4520 1110 l0 -1110 1105 0 1105 0 0 1110 0 1110 -1105 0 -1105 0 0
-1110z m2125 -10 l0 -1015 -1020 0 -1020 0 -3 1005 c-1 553 0 1011 3 1018 3
10 213 12 1022 10 l1018 -3 0 -1015z"/>
<path d="M5431 2015 c-18 -8 -41 -15 -50 -16 -9 0 -36 -11 -61 -24 -25 -13
-54 -28 -65 -33 -28 -13 -121 -107 -139 -140 -40 -75 -53 -114 -66 -194 -25
-162 14 -291 121 -399 54 -54 179 -130 304 -185 17 -7 53 -23 80 -35 141 -61
277 -135 322 -175 91 -79 130 -197 98 -296 -49 -150 -179 -228 -385 -228 -136
0 -212 23 -305 93 -40 30 -105 108 -105 126 0 5 -7 22 -15 38 -8 15 -17 49
-20 76 -4 26 -11 47 -16 47 -27 0 -111 -35 -116 -48 -15 -38 35 -176 87 -242
37 -49 112 -120 125 -120 5 0 16 -6 24 -13 20 -16 78 -40 153 -62 72 -21 335
-16 414 8 46 14 141 57 203 92 36 20 144 137 162 176 48 101 50 111 50 223 1
91 -3 121 -21 166 -55 139 -161 228 -390 327 -19 9 -48 22 -63 29 -16 8 -33
14 -38 14 -21 0 -205 94 -244 124 -45 35 -84 77 -85 90 0 5 -6 17 -14 25 -7 9
-19 44 -25 79 -18 94 8 208 59 261 27 28 98 81 107 81 6 0 25 8 44 17 27 14
62 17 164 17 137 1 142 0 227 -58 26 -17 98 -108 98 -123 0 -4 7 -27 16 -50
13 -34 22 -43 40 -43 37 0 56 38 42 81 -31 95 -101 188 -165 223 -125 67 -174
78 -358 82 -126 3 -167 1 -194 -11z"/>
<path d="M6775 2188 c-3 -18 -4 -517 -3 -1108 l3 -1075 1113 -3 1112 -2 0
1110 0 1110 -1110 0 -1109 0 -6 -32z m2130 -1088 l0 -1015 -1022 -3 -1023 -2
0 1020 0 1020 1023 -2 1022 -3 0 -1015z"/>
<path d="M7254 1996 c-3 -8 -4 -31 -2 -52 l3 -39 244 -2 c134 -1 248 -6 252
-10 5 -5 10 -387 11 -848 l3 -840 115 0 115 0 5 845 c3 465 6 846 8 847 1 2
113 4 250 5 l247 3 0 50 0 50 -623 3 c-527 2 -623 0 -628 -12z"/>
</g>
</svg>
