<?xml version="1.0" standalone="no"?>
<!DOCTYPE svg PUBLIC "-//W3C//DTD SVG 20010904//EN"
 "http://www.w3.org/TR/2001/REC-SVG-20010904/DTD/svg10.dtd">
<svg version="1.0" xmlns="http://www.w3.org/2000/svg"
 width="900.000000pt" height="309.000000pt" viewBox="0 0 900.000000 309.000000"
 preserveAspectRatio="xMidYMid meet">
<metadata>
Created by potrace 1.10, written by Peter Selinger 2001-2011
</metadata>
<g transform="translate(0.000000,309.000000) scale(0.100000,-0.100000)"
fill="#000000" stroke="none">
<path d="M0 1545 l0 -1545 4500 0 4500 0 0 1545 0 1545 -4500 0 -4500 0 0
-1545z m8864 1419 c15 -6 16 -141 16 -1430 l0 -1424 -22 -5 c-13 -3 -662 -4
-1443 -3 l-1420 3 -3 1420 c-1 781 0 1426 3 1433 3 9 298 12 1429 12 783 0
1431 -3 1440 -6z m-8265 -234 c20 -25 20 -28 21 -1177 l0 -1152 -23 -26 c-21
-25 -26 -26 -136 -27 -107 0 -116 1 -133 22 -17 21 -18 78 -18 1177 0 798 3
1160 11 1174 17 32 47 39 156 36 94 -2 103 -4 122 -27z m4540 24 c17 -4 37
-16 44 -28 8 -14 14 -110 17 -311 l5 -290 222 -5 c215 -5 223 -6 245 -28 21
-20 23 -32 23 -113 0 -131 8 -128 -270 -131 l-220 -3 0 -520 c0 -495 1 -523
20 -565 25 -59 49 -89 88 -114 28 -18 52 -22 199 -26 158 -5 169 -6 190 -28
21 -20 23 -32 23 -117 0 -134 13 -127 -236 -126 -226 2 -269 10 -370 68 -109
63 -177 169 -212 333 -5 25 -12 281 -16 570 l-6 525 -145 3 c-188 3 -190 5
-190 138 0 124 4 127 195 134 l140 5 5 290 c3 160 9 298 14 308 5 10 18 23 30
27 25 10 160 13 205 4z m-3164 -619 c38 -8 80 -15 92 -15 27 0 127 -42 205
-86 51 -29 178 -183 178 -215 0 -6 5 -20 12 -32 7 -12 20 -51 30 -87 16 -59
17 -125 18 -685 0 -577 -2 -622 -18 -643 -16 -21 -25 -23 -130 -24 -146 -1
-152 4 -152 112 0 42 -3 80 -6 83 -4 4 -37 -22 -75 -57 -44 -42 -93 -76 -141
-98 -131 -62 -175 -71 -353 -72 -172 0 -217 9 -339 70 -85 42 -202 146 -227
199 -5 11 -13 27 -18 35 -34 57 -44 105 -44 206 0 100 11 149 44 204 5 8 13
24 18 35 14 31 90 108 146 146 67 47 241 129 272 129 9 0 39 6 67 14 28 8 96
22 151 30 55 8 134 20 175 26 41 7 111 16 155 20 44 4 99 13 123 19 l42 12 0
69 c0 165 -59 276 -175 328 -117 53 -352 54 -445 1 -75 -42 -146 -108 -171
-158 -29 -59 -35 -61 -143 -61 -56 0 -106 4 -113 8 -34 22 -35 112 -2 172 69
123 145 190 293 259 136 64 375 89 531 56z m1810 -4 c50 -10 104 -24 120 -31
158 -65 234 -119 304 -215 71 -97 79 -148 30 -189 -27 -23 -39 -26 -110 -26
l-80 0 -89 85 c-50 47 -107 92 -127 101 -160 69 -390 55 -494 -28 -8 -7 -30
-33 -47 -57 -29 -40 -32 -50 -32 -121 0 -69 3 -81 29 -117 50 -69 182 -124
431 -178 97 -22 177 -44 218 -61 18 -8 38 -14 45 -14 14 0 128 -56 172 -85
117 -76 185 -210 185 -365 0 -134 -55 -259 -151 -343 -55 -48 -222 -137 -257
-137 -11 0 -39 -7 -63 -16 -67 -25 -421 -25 -504 0 -176 53 -285 114 -371 209
-94 102 -120 195 -68 236 23 18 41 21 118 21 l92 0 59 -60 c75 -76 173 -141
246 -163 81 -25 283 -23 364 2 88 28 120 47 164 97 44 50 58 108 46 193 -8 60
-50 106 -132 147 -101 49 -109 51 -300 98 -32 8 -80 20 -108 26 -27 7 -66 16
-85 20 -109 25 -238 90 -308 155 -107 99 -153 240 -128 395 7 41 17 84 23 95
6 11 14 27 18 35 32 78 140 182 240 229 162 77 365 100 550 62z"/>
<path d="M7739 2709 c0 -2 -1 -69 -2 -149 -2 -154 -10 -183 -61 -237 -24 -26
-90 -32 -99 -9 -9 22 -64 30 -90 13 -31 -20 -54 -89 -41 -125 11 -30 25 -32
134 -17 74 10 83 -1 69 -81 -6 -32 -22 -93 -36 -134 -56 -171 -61 -198 -37
-206 11 -3 35 -12 54 -19 19 -7 62 -21 95 -30 33 -10 76 -23 95 -30 53 -20
149 -39 156 -32 4 4 1 32 -5 64 -21 99 5 135 98 135 70 0 122 -26 146 -72 21
-41 19 -62 -11 -106 -31 -45 -26 -60 32 -89 30 -15 63 -21 144 -23 131 -4 160
5 160 51 0 19 5 59 11 88 6 30 14 90 19 134 4 44 13 112 19 150 6 39 18 124
26 190 9 66 22 159 30 206 8 47 15 113 15 146 0 67 -6 73 -63 73 -18 0 -77 6
-132 14 -55 9 -154 22 -220 31 -66 8 -151 20 -190 26 -38 6 -106 15 -150 19
-44 5 -99 12 -122 15 -24 4 -43 6 -44 4z"/>
<path d="M6267 2383 c-10 -9 -9 -1001 1 -1006 4 -3 45 1 92 9 47 7 150 14 229
14 140 2 145 1 163 -22 21 -27 22 -42 7 -70 -10 -18 -8 -25 10 -39 28 -23 140
-35 170 -19 20 10 21 16 15 84 -6 73 -6 74 22 92 23 16 50 19 148 21 l121 1
16 74 c28 120 39 191 39 241 0 26 -2 47 -4 47 -2 0 -25 -9 -51 -20 -77 -33
-122 -24 -150 30 -29 55 -12 152 32 193 30 26 77 32 114 13 47 -24 63 -20 82
19 29 61 22 176 -19 333 -3 9 -115 12 -517 12 -283 0 -517 -3 -520 -7z"/>
<path d="M7782 1538 c-33 -16 -37 -51 -12 -102 12 -26 20 -59 18 -78 l-3 -33
-70 1 c-86 1 -222 20 -377 53 -47 10 -51 5 -66 -80 -15 -81 -15 -169 -2 -204
10 -26 12 -26 73 -20 77 7 105 -6 124 -59 27 -81 -26 -246 -81 -246 -12 0 -27
5 -33 11 -7 7 -19 9 -27 6 -13 -5 -16 -26 -16 -115 0 -110 15 -258 31 -299 l9
-23 463 0 c347 0 466 3 475 12 9 9 12 128 12 475 0 408 -2 464 -15 470 -9 3
-42 -2 -74 -11 -31 -9 -91 -16 -132 -16 -83 0 -135 22 -173 73 l-21 28 24 45
c21 39 22 48 11 69 -12 22 -75 56 -103 54 -6 0 -22 -5 -35 -11z"/>
<path d="M7007 1394 c-4 -4 -4 -39 0 -79 l6 -72 -35 -26 c-25 -20 -47 -27 -77
-27 -58 0 -151 28 -179 53 -20 19 -22 27 -16 71 l6 49 -128 -7 c-174 -9 -274
-16 -302 -22 l-22 -4 2 -488 3 -487 505 0 505 0 -1 80 c0 44 -5 139 -9 212 -7
117 -6 135 9 158 15 24 23 26 68 24 47 -3 52 -1 65 26 9 16 18 57 21 91 4 58
3 63 -22 79 -24 16 -29 16 -66 1 -46 -18 -79 -10 -104 26 -13 18 -16 49 -16
150 0 69 5 139 10 154 8 21 8 29 -2 36 -15 9 -212 11 -221 2z"/>
<path d="M2045 1205 c-78 -16 -190 -33 -280 -45 -102 -12 -185 -37 -290 -85
-56 -26 -135 -90 -135 -110 0 -7 -7 -18 -15 -25 -23 -19 -21 -160 4 -208 55
-107 189 -172 357 -172 228 0 396 114 477 325 21 54 40 196 35 270 l-3 60 -40
2 c-22 1 -71 -5 -110 -12z"/>
</g>
</svg>
