<?xml version="1.0" standalone="no"?>
<!DOCTYPE svg PUBLIC "-//W3C//DTD SVG 20010904//EN"
 "http://www.w3.org/TR/2001/REC-SVG-20010904/DTD/svg10.dtd">
<svg version="1.0" xmlns="http://www.w3.org/2000/svg"
 width="300.000000pt" height="73.000000pt" viewBox="0 0 300.000000 73.000000"
 preserveAspectRatio="xMidYMid meet">
<metadata>
Created by potrace 1.10, written by Peter Selinger 2001-2011
</metadata>
<g transform="translate(0.000000,73.000000) scale(0.050000,-0.050000)" stroke="none">
<path d="M20 740 l0 -720 720 0 720 0 0 720 0 720 -720 0 -720 0 0 -720z m600
120 l0 -420 250 0 250 0 0 -120 0 -120 -380 0 -380 0 0 540 0 540 130 0 130 0
0 -420z"/>
<path d="M1520 730 l0 -730 730 0 730 0 0 730 0 730 -730 0 -730 0 0 -730z
m1380 0 l0 -650 -650 0 -650 0 0 650 0 650 650 0 650 0 0 -650z"/>
<path d="M1917 730 l-213 -530 134 0 133 0 30 85 29 85 218 0 219 0 28 -85 28
-85 129 0 c157 0 166 -62 -78 541 l-207 509 -118 5 -119 6 -213 -531z m452
-105 c13 -44 9 -45 -118 -45 -72 0 -131 7 -131 15 0 8 29 94 63 192 l64 177
54 -147 c29 -81 60 -167 68 -192z"/>
<path d="M3040 740 l0 -720 720 0 720 0 0 720 0 720 -720 0 -720 0 0 -720z
m924 509 c111 -56 216 -176 216 -246 0 -28 -248 -86 -257 -60 -29 82 -156 136
-234 100 -109 -50 -35 -127 193 -201 476 -154 393 -660 -108 -662 -208 0 -454
167 -454 309 0 45 257 92 271 49 32 -101 226 -158 298 -87 60 61 19 111 -134
164 -274 93 -395 198 -395 340 0 259 343 426 604 294z"/>
<path d="M4540 730 l0 -730 730 0 730 0 0 730 0 730 -730 0 -730 0 0 -730z
m1380 0 l0 -650 -650 0 -650 0 0 650 0 650 650 0 650 0 0 -650z"/>
<path d="M4820 1150 l0 -110 160 0 160 0 0 -420 0 -420 120 0 119 0 6 415 5
415 165 6 165 6 0 109 0 109 -450 0 -450 0 0 -110z"/>
</g>
</svg>
